<?xml version="1.0" standalone="no"?>
<!DOCTYPE svg PUBLIC "-//W3C//DTD SVG 1.1//EN" "http://www.w3.org/Graphics/SVG/1.1/DTD/svg11.dtd" >
<svg xmlns="http://www.w3.org/2000/svg">
<metadata></metadata>
<defs>
<font id="bureaugrotesque_fiveoneRg" horiz-adv-x="1024" >
<font-face units-per-em="2048" ascent="1638" descent="-410" />
<missing-glyph horiz-adv-x="491" />
<glyph horiz-adv-x="2048" />
<glyph horiz-adv-x="2048" />
<glyph unicode="&#xd;" horiz-adv-x="2048" />
<glyph unicode=" "  horiz-adv-x="491" />
<glyph unicode="&#x09;" horiz-adv-x="491" />
<glyph unicode="&#xa0;" horiz-adv-x="491" />
<glyph unicode="!" horiz-adv-x="366" d="M80 0v236h207v-236h-207zM82 1573h203l-45 -1069h-113z" />
<glyph unicode="&#x22;" horiz-adv-x="589" d="M102 1573h134l-11 -457h-112zM354 1573h133l-10 -457h-112z" />
<glyph unicode="#" horiz-adv-x="1179" d="M74 457v141h229l43 377h-215v141h231l62 457h113l-48 -457h291l62 457h112l-47 -457h197v-141h-213l-43 -377h203v-141h-220l-61 -457h-106l41 457h-291l-62 -457h-112l47 457h-213zM430 598h291l43 377h-291z" />
<glyph unicode="$" horiz-adv-x="1179" d="M109 340q0 46 8.5 108.5t21.5 98.5l144 -2q-25 -102 -25 -154q0 -245 272 -266v637l-73 29q-164 63 -247 151.5t-83 220.5q0 172 108 289t295 127v113h134v-113q188 -10 297.5 -117t109.5 -260q0 -62 -18 -115h-156q18 43 18 117q0 87 -75 159t-176 79v-559 q101 -38 171 -76t129.5 -92.5t89 -128t29.5 -168.5q0 -86 -23 -155t-60.5 -115t-93 -79t-113.5 -51t-129 -28v-174h-134v174q-89 5 -163.5 28t-133 64.5t-91.5 107t-33 150.5zM283 1190q0 -53 16 -92.5t52.5 -70t75 -51.5t103.5 -48v514q-121 -15 -184 -83t-63 -169z M664 131q51 6 96.5 24t84.5 50t62 83t23 115q0 223 -266 310v-582z" />
<glyph unicode="%" horiz-adv-x="1425" d="M78 1186q0 78 7 137.5t25 113t48.5 87.5t78.5 53.5t113 19.5q81 0 135.5 -29t84 -86t41.5 -127.5t12 -168.5q0 -77 -7 -136.5t-25.5 -112.5t-49 -87.5t-78.5 -54t-113 -19.5t-113 19.5t-78.5 54t-48.5 87.5t-25 112t-7 137zM215 0l864 1573h131l-862 -1573h-133z M225 1186q0 -46 0.5 -75.5t2.5 -61t5.5 -50.5t10 -38.5t15.5 -29.5t22 -19t30 -12t39 -3t39 3t30 12t22 19t15.5 29.5t10 38.5t5.5 50.5t2.5 61t0.5 75.5t-0.5 75.5t-2.5 61t-5.5 50.5t-10 38.5t-15.5 29.5t-22 19t-30 12t-39 3t-39 -3t-30 -12t-22 -19t-15.5 -29.5 t-10 -38.5t-5.5 -50.5t-2.5 -61t-0.5 -75.5zM803 385q0 78 7 137.5t25 113t48.5 88t78.5 54t113 19.5t113 -20t78.5 -54.5t49 -87.5t25.5 -113t7 -137t-7 -136.5t-25.5 -112.5t-49 -87.5t-78.5 -54t-113 -19.5t-113 19.5t-78.5 54t-48.5 87.5t-25 112t-7 137zM950 385 q0 -46 0.5 -75.5t2.5 -61t5.5 -50.5t10 -38.5t15.5 -29.5t22 -19t30 -12t39 -3t39 3t30 12t22 19t15.5 29.5t10 38.5t5.5 50.5t2.5 61t0.5 75.5t-0.5 75.5t-2.5 61t-5.5 50.5t-10 38.5t-15.5 29.5t-22 19t-30 12t-39 3t-39 -3t-30 -12t-22 -19t-15.5 -29.5t-10 -38.5 t-5.5 -50.5t-2.5 -61t-0.5 -75.5z" />
<glyph unicode="&#x26;" horiz-adv-x="1540" d="M80 414q0 153 101 287.5t251 222.5q-51 81 -74.5 154.5t-23.5 178.5q0 146 91.5 243t231.5 97q136 0 218.5 -88.5t82.5 -230.5q0 -137 -86 -233t-243 -166q22 -37 85 -149.5t115 -198.5t105 -160q55 72 110.5 236.5t67.5 305.5l143 -26q-26 -158 -83.5 -328t-151.5 -297 q39 -70 80 -104.5t96 -34.5q34 0 60 9.5t48 32.5t34 68.5t12 112.5q0 80 -17 158h121q25 -129 25 -205q0 -139 -71 -227t-218 -88q-94 0 -157.5 38t-123.5 121q-100 -86 -185 -127t-198 -41q-207 0 -326.5 124.5t-119.5 314.5zM244 430q0 -132 81 -226.5t212 -94.5 q87 0 156.5 37t140.5 106q-145 206 -332 549q-109 -60 -183.5 -158t-74.5 -213zM487 1264q0 -79 17 -139t59 -130q66 37 105.5 64.5t73.5 64t48.5 80.5t14.5 101q0 70 -41 112.5t-109 42.5q-75 0 -121.5 -60t-46.5 -136z" />
<glyph unicode="'" horiz-adv-x="346" d="M102 1573h142l-11 -457h-120z" />
<glyph unicode="(" horiz-adv-x="739" d="M111 694q0 299 91 538.5t281 387.5h146q-348 -272 -348 -926q0 -651 348 -923h-146q-190 149 -281 386t-91 537z" />
<glyph unicode=")" horiz-adv-x="739" d="M111 -229q348 272 348 923q0 654 -348 926h145q190 -148 281.5 -388t91.5 -538q0 -300 -91.5 -537t-281.5 -386h-145z" />
<glyph unicode="*" horiz-adv-x="806" d="M104 1178l185 106l-185 107l60 102l184 -107v211h117v-213l184 107l58 -102l-181 -105l181 -104l-58 -103l-184 107v-213h-117v211l-184 -107z" />
<glyph unicode="+" horiz-adv-x="1351" d="M164 696v142h440v434h144v-434h440v-142h-440v-434h-144v434h-440z" />
<glyph unicode="," horiz-adv-x="530" d="M104 -199q77 22 113 52q29 27 38.5 66.5t0.5 80.5h-106v254h231v-254q0 -84 -23 -136t-75 -89q-50 -42 -160 -56z" />
<glyph unicode="-" horiz-adv-x="624" d="M102 594v158h420v-158h-420z" />
<glyph unicode="." horiz-adv-x="530" d="M143 0v258h244v-258h-244z" />
<glyph unicode="/" horiz-adv-x="921" d="M0 0l778 1573h144l-779 -1573h-143z" />
<glyph unicode="0" horiz-adv-x="1058" d="M90 717q0 182 13 318t43.5 245t80.5 177t125 104t176 36q103 0 178 -35.5t125.5 -102.5t81 -176.5t43.5 -245.5t13 -320q0 -133 -12 -240t-42.5 -203t-79.5 -160t-127 -101.5t-180 -37.5q-100 0 -176 34.5t-125.5 96t-80 156t-43.5 204.5t-13 251zM260 770 q0 -65 0.5 -107.5t3.5 -103t8 -101.5t14.5 -91t23 -83.5t33.5 -67.5t46 -54t61.5 -32.5t77.5 -12.5q39 0 71.5 9t57.5 29t45 43t34 59t24.5 68t17 79.5t10.5 85t6 92.5t2.5 92.5t0.5 95.5q0 86 -2 150t-8 140t-17.5 129.5t-31.5 107t-48 86t-69 53t-93 20.5 q-51 0 -91.5 -20.5t-68.5 -53.5t-48 -86.5t-31.5 -108t-18 -129.5t-8.5 -139.5t-2 -148.5z" />
<glyph unicode="1" horiz-adv-x="645" d="M35 1217v100q135 6 248 80q51 34 80.5 74.5t52.5 101.5h104v-1573h-168v1251q-39 -18 -90.5 -28.5t-85.5 -10.5q-95 0 -141 5z" />
<glyph unicode="2" d="M113 0v190l61 54q121 105 221 208t187.5 216t136.5 226t49 212q0 187 -64.5 268.5t-187.5 81.5q-112 0 -168.5 -88t-56.5 -250q0 -31 5 -81t10 -85l5 -34h-164q-26 161 -26 239q0 88 25 166t72 139.5t123.5 98t172.5 36.5q219 0 323.5 -113.5t104.5 -373.5 q0 -95 -42.5 -205t-104 -203.5t-146 -192t-151.5 -165.5t-138 -129l-69 -61h635v-154h-813z" />
<glyph unicode="3" d="M111 336q0 98 24 174l154 10q-19 -74 -19 -129q0 -134 63 -208t173 -74q115 0 185.5 98.5t70.5 296.5q0 173 -53.5 254.5t-145.5 81.5q-18 0 -32.5 -1.5t-28.5 -6.5t-22 -8.5t-21 -13.5t-18 -14.5t-20.5 -19.5t-21.5 -20l-100 88l395 571h-547v158h723v-158l-340 -479 q47 27 125 27q47 0 94.5 -26.5t89 -78.5t67.5 -140.5t26 -199.5q0 -543 -440 -543q-172 0 -276.5 96t-104.5 265z" />
<glyph unicode="4" d="M74 377v178l489 1018h221v-1049h193v-147h-193v-377h-166v377h-544zM205 524h413v856z" />
<glyph unicode="5" horiz-adv-x="983" d="M104 340q0 78 15 143l151 -2q-8 -46 -8 -100q0 -138 53 -202t162 -64q133 0 188.5 103.5t55.5 309.5q0 230 -51.5 327t-165.5 97q-98 0 -156 -66t-90 -200l-131 33l39 854h639l-6 -146h-496l-27 -479q26 36 47.5 58.5t54.5 45.5t78 33.5t103 10.5q161 0 249.5 -140 t88.5 -430q0 -551 -408 -551q-186 0 -285.5 92.5t-99.5 272.5z" />
<glyph unicode="6" d="M96 748q0 319 47.5 506.5t139.5 265t243 77.5q171 0 267.5 -84t107.5 -219q4 -49 0 -86l-168 -12q4 18 4 57q-3 95 -57.5 151t-157.5 56q-231 0 -262 -422q-12 -171 -8 -258q36 97 119 155t198 58q80 0 145 -26t118 -83t82.5 -159t29.5 -242q0 -241 -114.5 -374.5 t-305.5 -133.5q-83 0 -146 20t-118 72t-90 138.5t-54.5 222.5t-19.5 320zM264 475q0 -171 75 -264.5t183 -93.5q114 0 183 91.5t69 278.5q0 199 -54.5 280t-197.5 81q-114 0 -186 -106.5t-72 -266.5z" />
<glyph unicode="7" horiz-adv-x="974" d="M59 1573h838v-178q-197 -201 -302.5 -487t-105.5 -556q0 -178 19 -352h-199q-6 129 -6 160q0 265 68.5 526t176.5 450.5t232 282.5h-714z" />
<glyph unicode="8" d="M111 416q0 154 64 257t144 136q-73 26 -124.5 111t-51.5 219q0 225 99.5 341.5t281.5 116.5q192 0 289.5 -116.5t97.5 -339.5q0 -135 -56 -219.5t-136 -112.5q91 -26 153 -130.5t62 -262.5q0 -201 -109 -321t-303 -120t-302.5 111.5t-108.5 329.5zM274 424 q0 -164 63 -239.5t185 -75.5q126 0 187 76t61 239q0 146 -62 230.5t-186 84.5q-119 0 -183.5 -87t-64.5 -228zM301 1171q0 -139 62 -215.5t159 -76.5q232 0 232 288q0 149 -56.5 223t-175.5 74q-221 0 -221 -293z" />
<glyph unicode="9" d="M84 1090q0 247 113 377t307 130q85 0 147.5 -19t118 -69.5t90 -136.5t54.5 -222.5t20 -324.5q0 -311 -48 -499t-141 -269.5t-243 -81.5q-182 0 -281.5 95.5t-99.5 255.5q0 14 8 86l168 10q-4 -18 -4 -55q0 -115 50.5 -184.5t162.5 -69.5q119 0 179 107.5t77 354.5 q9 129 4 222q-89 -217 -309 -217q-81 0 -145.5 26t-117 83t-81.5 159t-29 242zM256 1085q0 -199 58 -280.5t178 -81.5q115 0 189.5 107.5t74.5 267.5q0 162 -66 261t-184 99q-250 0 -250 -373z" />
<glyph unicode=":" horiz-adv-x="530" d="M147 0v254h236v-254h-236zM147 827v254h236v-254h-236z" />
<glyph unicode=";" horiz-adv-x="530" d="M104 -199q77 22 113 52q29 27 38.5 66.5t0.5 80.5h-106v254h231v-254q0 -84 -23 -136t-75 -89q-50 -42 -160 -56zM147 827v254h236v-254h-236z" />
<glyph unicode="&#x3c;" horiz-adv-x="894" d="M127 561v197l627 307v-139l-525 -267l525 -266v-139z" />
<glyph unicode="=" horiz-adv-x="1040" d="M113 381v143h815v-143h-815zM113 774v144h815v-144h-815z" />
<glyph unicode="&#x3e;" horiz-adv-x="894" d="M143 254v139l525 266l-525 267v139l627 -307v-197z" />
<glyph unicode="?" horiz-adv-x="946" d="M135 1278q0 66 19.5 121.5t60 100.5t111 71t163.5 26q189 0 294.5 -125t105.5 -350q0 -121 -16 -212t-43.5 -149t-70 -94t-89.5 -50.5t-107 -14.5q-82 0 -141 31t-80 90q10 -97 10 -154v-129h-131v541h113q2 -50 13 -92.5t32.5 -79t59 -57.5t87.5 -21q108 0 148.5 84 t40.5 297q0 156 -58 248t-172 92q-116 0 -159 -51.5t-43 -155.5q0 -48 20 -102h-147q-21 61 -21 135zM190 0v236h211v-236h-211z" />
<glyph unicode="@" horiz-adv-x="1724" d="M92 637q0 212 58 391.5t161 306.5t251.5 198t324.5 71q182 0 325 -60.5t234 -169t138.5 -255.5t47.5 -324q0 -312 -108 -480t-312 -168q-82 0 -127 46.5t-45 123.5q-18 -61 -63.5 -102.5t-94.5 -57.5t-98 -16q-136 0 -212 77.5t-76 213.5q0 116 77 196t207 122 q108 35 252 51q0 90 -9 143.5t-33 82.5t-56.5 38.5t-87.5 9.5q-41 0 -71 -8t-47 -20.5t-26.5 -32.5t-12.5 -38.5t-3 -43.5q0 -21 8 -45l-151 -10q-8 40 -8 73q0 117 83 184.5t232 67.5q82 0 140 -16.5t100.5 -55.5t63 -105.5t20.5 -164.5v-483q0 -70 14.5 -93.5t66.5 -23.5 q116 0 181 145t65 381q0 112 -23 214t-72.5 193t-122.5 157.5t-179.5 105.5t-235.5 39q-130 0 -247.5 -65t-204.5 -177.5t-138 -273.5t-51 -344q0 -406 178 -620t490 -214q120 0 233.5 59.5t169.5 125.5l72 -74q-210 -205 -485 -205q-377 0 -585 232.5t-208 697.5zM643 416 q0 -73 40 -106.5t128 -33.5q86 0 153.5 70t67.5 170v166q-202 -30 -295.5 -95.5t-93.5 -170.5z" />
<glyph unicode="A" horiz-adv-x="1232" d="M41 0l438 1573h252l461 -1573h-180l-111 385h-596l-102 -385h-162zM340 522h528l-266 922z" />
<glyph unicode="B" horiz-adv-x="1214" d="M127 0v1573h504q222 0 336 -108t114 -316q0 -297 -239 -324q122 -10 200 -105t78 -276q0 -102 -22 -180t-59.5 -127.5t-93 -80.5t-115.5 -43.5t-134 -12.5h-569zM295 143h352q153 0 229 70.5t76 245.5q0 293 -309 293h-348v-609zM295 895h326q152 0 222 58t70 190 q0 289 -297 289h-321v-537z" />
<glyph unicode="C" horiz-adv-x="1273" d="M92 758q0 225 38.5 387.5t114 261t179.5 144.5t242 46q123 0 215.5 -32.5t147 -85t86 -126t39.5 -149.5q4 -41 4 -84q0 -38 -3 -78h-176q4 37 4 72q0 74 -20 138q-30 94 -105 150t-184 56q-207 0 -305.5 -164t-98.5 -520q0 -334 95.5 -494.5t314.5 -160.5q58 0 103 12 t76 31t53 53t34 65.5t20 83.5t10.5 91.5t4.5 103.5l174 -16q-6 -288 -117 -428t-360 -140q-144 0 -250.5 43t-182.5 135t-114.5 243t-38.5 362z" />
<glyph unicode="D" horiz-adv-x="1286" d="M127 0v1573h459q135 0 244.5 -49t191 -146.5t126 -255t44.5 -364.5t-35.5 -348t-117.5 -234t-211.5 -134.5t-321.5 -41.5h-379zM295 147h201q143 0 238.5 28.5t162.5 98t97 187.5t30 297q0 667 -496 667h-233v-1278z" />
<glyph unicode="E" horiz-adv-x="1060" d="M127 0v1573h823v-141h-655v-553h600v-142h-600v-596h702v-141h-870z" />
<glyph unicode="F" horiz-adv-x="985" d="M127 0v1573h803v-141h-635v-580h590v-141h-590v-711h-168z" />
<glyph unicode="G" horiz-adv-x="1320" d="M92 741q0 224 41.5 389.5t119 267t182.5 150.5t239 49q268 0 396 -137q116 -122 116 -333q0 -24 -2 -50l-176 -28q2 30 2 57q0 168 -74 253q-86 99 -254 99q-218 0 -318 -177.5t-100 -537.5q0 -339 105.5 -485.5t337.5 -146.5q180 0 261 101t81 290q0 44 -9 123h-313v141 h481v-760l-102 -16q-39 108 -59 149q-122 -164 -377 -164q-97 0 -179.5 23t-157.5 78.5t-127 141.5t-83 219t-31 304z" />
<glyph unicode="H" horiz-adv-x="1269" d="M127 0v1573h168v-662h680v662h168v-1573h-168v770h-680v-770h-168z" />
<glyph unicode="I" horiz-adv-x="423" d="M127 0v1573h170v-1573h-170z" />
<glyph unicode="J" horiz-adv-x="878" d="M47 326q0 68 16 153l170 8q-16 -85 -16 -159q0 -104 46 -150.5t140 -46.5q80 0 122 32t59.5 108.5t17.5 222.5v1079h168v-1124q0 -249 -85 -361.5t-279 -112.5q-173 0 -266 89t-93 262z" />
<glyph unicode="K" horiz-adv-x="1150" d="M127 0v1573h168v-696l579 696h197l-643 -766l709 -807h-219l-623 702v-702h-168z" />
<glyph unicode="L" horiz-adv-x="940" d="M127 0v1573h168v-1430h577v-143h-745z" />
<glyph unicode="M" horiz-adv-x="1513" d="M127 0v1573h270l363 -1274l362 1274h264v-1573h-163v1386l-396 -1386h-141l-399 1386v-1386h-160z" />
<glyph unicode="N" horiz-adv-x="1253" d="M127 0v1573h215l633 -1323v1323h151v-1573h-215l-632 1323v-1323h-152z" />
<glyph unicode="O" horiz-adv-x="1339" d="M92 786q0 411 148.5 611t429.5 200q282 0 429.5 -200.5t147.5 -610.5q0 -420 -136 -615.5t-441 -195.5q-300 0 -439 192.5t-139 618.5zM264 786q0 -359 95.5 -515t310.5 -156q223 0 314 158.5t91 512.5q0 672 -405 672q-406 0 -406 -672z" />
<glyph unicode="P" horiz-adv-x="1120" d="M127 0v1573h416q120 0 211.5 -26.5t160.5 -84t104.5 -154.5t35.5 -231q0 -98 -26 -174.5t-71 -126.5t-110 -82.5t-138.5 -46.5t-160.5 -14h-254v-633h-168zM295 776h287q147 0 226 82.5t79 226.5q0 153 -80.5 250t-218.5 97h-293v-656z" />
<glyph unicode="Q" horiz-adv-x="1339" d="M92 786q0 409 147 610t431 201q281 0 429 -201.5t148 -609.5q0 -390 -120.5 -581t-381.5 -217q-32 -25 -32 -68q0 -153 157 -153q55 0 89.5 19t72.5 64l74 -108q-37 -49 -99.5 -84t-138.5 -35q-148 0 -227.5 71t-79.5 200q0 58 33 94q-251 15 -376.5 211t-125.5 587z M264 786q0 -358 95.5 -512.5t310.5 -154.5q217 0 311 154.5t94 512.5q0 344 -101.5 508t-303.5 164q-198 0 -302 -162t-104 -510z" />
<glyph unicode="R" horiz-adv-x="1204" d="M127 0v1573h506q233 0 346 -114.5t113 -350.5q0 -309 -246 -340q133 -15 179.5 -108t49.5 -320q0 -47 6 -164q6 -127 41 -176h-180q-39 53 -39 180v266q0 116 -62.5 180t-187.5 64h-358v-690h-168zM295 834h315q90 0 151.5 18t96 55t48.5 85t14 116q0 167 -80 246.5 t-254 79.5h-291v-600z" />
<glyph unicode="S" horiz-adv-x="1150" d="M102 336q0 46 21 153l164 7q-17 -63 -17 -125q0 -134 69.5 -192t223.5 -58q166 0 244 63t78 213q0 114 -73.5 189.5t-256.5 152.5l-190 82q-126 53 -192.5 133.5t-66.5 206.5q0 201 109.5 318.5t329.5 117.5q199 0 319.5 -104.5t120.5 -273.5q0 -59 -12 -109l-160 -4 q10 58 10 76q0 121 -70 198.5t-218 77.5q-129 0 -192.5 -64.5t-63.5 -181.5q0 -70 25.5 -117t74.5 -80t143 -75l236 -104q105 -46 173 -117t96 -149t28 -169q0 -218 -129 -322t-369 -104q-223 0 -339 90.5t-116 270.5z" />
<glyph unicode="T" horiz-adv-x="1011" d="M37 1427v146h932v-146h-379v-1427h-168v1427h-385z" />
<glyph unicode="U" horiz-adv-x="1249" d="M119 508v1065h168v-1145q0 -47 9.5 -88.5t34.5 -82.5t63.5 -70.5t100.5 -47.5t142 -18q77 0 136 19.5t94 50.5t57.5 73.5t30.5 83t8 84.5v1141h167v-1061q0 -105 -11 -181.5t-43 -147t-86 -114t-142.5 -69t-210.5 -25.5q-149 0 -249 31t-159.5 99t-84.5 164.5t-25 238.5z " />
<glyph unicode="V" horiz-adv-x="1161" d="M41 1573h180l354 -1325l381 1325h164l-471 -1573h-166z" />
<glyph unicode="W" horiz-adv-x="1667" d="M41 1573h174l252 -1258l287 1258h166l268 -1258l272 1258h160l-358 -1573h-164l-269 1286l-290 -1286h-164z" />
<glyph unicode="X" horiz-adv-x="1200" d="M59 0l445 821l-420 752h192l328 -596l320 596h166l-402 -756l453 -817h-193l-364 662l-355 -662h-170z" />
<glyph unicode="Y" horiz-adv-x="1146" d="M25 1573h184l387 -750l360 750h166l-454 -914v-659h-168v659z" />
<glyph unicode="Z" horiz-adv-x="1089" d="M80 0v184l764 1248h-690v141h850v-189l-762 -1243h762v-141h-924z" />
<glyph unicode="[" horiz-adv-x="532" d="M162 -195v1768h358v-133h-198v-1501h198v-134h-358z" />
<glyph unicode="\" horiz-adv-x="921" d="M0 1573h143l779 -1573h-144z" />
<glyph unicode="]" horiz-adv-x="532" d="M12 -61h199v1501h-199v133h359v-1768h-359v134z" />
<glyph unicode="^" horiz-adv-x="1075" d="M254 1174l246 399h106l248 -399h-127l-176 235l-168 -235h-129z" />
<glyph unicode="_" d="M0 -266h1024v-142h-1024v142z" />
<glyph unicode="`" horiz-adv-x="1105" d="M373 1546v23h233l162 -266h-115z" />
<glyph unicode="a" d="M80 311q0 134 88.5 226t239.5 141q130 43 297 59q0 104 -11.5 169t-40 102.5t-68.5 51t-104 13.5q-59 0 -99 -14.5t-58.5 -42t-25.5 -55t-7 -64.5q0 -25 8 -53l-166 -15q-8 56 -8 89q0 136 94 215t268 79q96 0 163.5 -19.5t116.5 -65t72 -123.5t23 -193v-588 q0 -52 18.5 -75t77.5 -23h27v-98q-57 -43 -139 -43q-133 0 -133 206q-18 -60 -53 -104t-78.5 -67t-85.5 -33.5t-84 -10.5q-159 0 -245.5 88.5t-86.5 247.5zM242 291q0 -86 48.5 -126t149.5 -40q102 0 183.5 83.5t81.5 201.5v192q-28 0 -93 -11t-106 -24 q-143 -47 -203.5 -111.5t-60.5 -164.5z" />
<glyph unicode="b" horiz-adv-x="1073" d="M123 -4v1577h160v-574q32 88 110 142.5t172 54.5q206 0 313 -151t107 -484q0 -130 -25 -233t-65 -168t-95 -107.5t-111.5 -60t-117.5 -17.5q-57 0 -108.5 17.5t-88 45t-61.5 55.5t-39 54l-81 -151h-70zM283 586q0 -253 67.5 -356t214.5 -103q61 0 107 22.5t81 72.5 t53.5 136t18.5 207q0 176 -32.5 285t-90 154t-145.5 45q-128 0 -201 -117.5t-73 -345.5z" />
<glyph unicode="c" horiz-adv-x="989" d="M88 561q0 238 52 382.5t150.5 206.5t254.5 62q177 0 263.5 -97.5t86.5 -256.5q0 -46 -8 -86l-150 -8q6 21 6 57q0 246 -213 246q-147 0 -212.5 -111t-65.5 -340q0 -198 30 -307.5t87.5 -150.5t158.5 -41q125 0 177.5 70t52.5 212q0 38 -10 86l149 -8q14 -68 14 -145 q0 -69 -21.5 -130.5t-65 -113.5t-120 -82.5t-176.5 -30.5q-220 0 -330 141.5t-110 444.5z" />
<glyph unicode="d" horiz-adv-x="1073" d="M88 561q0 167 31 291.5t87 197t128.5 107.5t161.5 35q98 0 177.5 -43.5t117.5 -126.5v551h159v-1575h-153v162q-33 -80 -116.5 -130t-197.5 -50q-66 0 -122 17t-107.5 58.5t-87 106.5t-57 166.5t-21.5 232.5zM252 565q0 -161 33.5 -259.5t92.5 -138.5t150 -40 q60 0 106 23t82 74t55.5 142.5t19.5 219.5q0 216 -84.5 339.5t-204.5 123.5q-133 0 -191.5 -110.5t-58.5 -373.5z" />
<glyph unicode="e" horiz-adv-x="1040" d="M88 571q0 178 28.5 302t86.5 198.5t138 107.5t191 33q183 0 286 -116.5t118 -347.5q4 -62 4 -109q0 -51 -2 -76h-684q0 -36 4 -98q12 -190 80.5 -269t216.5 -79q211 0 219 221l-2 47l158 -16q3 -17 3 -42q0 -15 -1 -34q-11 -150 -112 -234t-283 -84q-237 0 -343 136.5 t-106 459.5zM254 696h518q0 68 -6 123q-36 254 -236 254q-129 0 -202.5 -100t-73.5 -277z" />
<glyph unicode="f" horiz-adv-x="587" d="M14 1036v140h174v118q0 146 58 224.5t196 78.5q61 0 107 -17t72.5 -45.5t39.5 -66.5q12 -34 12 -71v-6q-1 -40 -14 -80l-135 10q12 40 12 70q0 82 -90 82q-46 0 -72 -35.5t-26 -102.5v-159h223v-140h-223v-1036h-160v1036h-174z" />
<glyph unicode="g" horiz-adv-x="960" d="M76 -141q0 88 43.5 157.5t138.5 96.5q-158 26 -158 176q0 144 172 205q-72 40 -111.5 131.5t-39.5 199.5q0 178 96 282.5t272 104.5q71 0 138 -26l30 213h185l-135 -250q66 -47 109.5 -130.5t43.5 -193.5q0 -173 -98 -281t-254 -108q-74 0 -152 19q-72 -20 -93 -46.5 t-21 -70.5q0 -81 136 -81q26 0 58 3l154 14q22 2 43 2q120 0 202 -62q97 -74 97 -234q0 -182 -117.5 -273.5t-343.5 -91.5q-395 0 -395 244zM213 -96q0 -77 66 -120.5t196 -43.5q172 0 247 53.5t75 161.5q0 88 -60.5 122t-179.5 34q-106 0 -186 -17q-158 -73 -158 -190z M281 825q0 -125 53 -192.5t155 -67.5q211 0 211 260q0 121 -53 190.5t-158 69.5q-109 0 -158.5 -66t-49.5 -194z" />
<glyph unicode="h" horiz-adv-x="999" d="M123 0v1573h160v-576q31 98 104 148.5t182 50.5q314 0 314 -389v-807h-160v764q0 163 -48.5 225t-160.5 62q-111 0 -171 -99t-60 -254v-698h-160z" />
<glyph unicode="i" horiz-adv-x="405" d="M113 1374v199h180v-199h-180zM123 0v1176h160v-1176h-160z" />
<glyph unicode="j" horiz-adv-x="430" d="M-221 -102l135 12q-3 -26 0 -47q6 -56 34.5 -78.5t82.5 -22.5q64 0 90 52.5t26 195.5v1166h160v-1231q0 -160 -71 -237t-199 -77q-231 0 -258 195q-3 16 -3 34t3 38zM137 1374v199h180v-199h-180z" />
<glyph unicode="k" horiz-adv-x="909" d="M123 0v1573h160v-1022l374 625h181l-301 -488l342 -688h-191l-260 528l-145 -237v-291h-160z" />
<glyph unicode="l" horiz-adv-x="405" d="M123 0v1573h160v-1573h-160z" />
<glyph unicode="m" horiz-adv-x="1572" d="M123 0v1176h158v-179q28 95 104.5 147t175.5 52q226 0 287 -215q30 96 116.5 155.5t184.5 59.5q307 0 307 -389v-807h-158v764q0 163 -46.5 225t-155.5 62q-73 0 -126 -49.5t-77.5 -128t-24.5 -175.5v-698h-157v764q0 163 -47 225t-158 62q-72 0 -124 -50.5t-76.5 -129 t-24.5 -173.5v-698h-158z" />
<glyph unicode="n" horiz-adv-x="999" d="M123 0v1176h160v-172q38 93 113 142.5t173 49.5q314 0 314 -389v-807h-160v764q0 163 -48.5 225t-160.5 62q-74 0 -127.5 -50.5t-78.5 -129t-25 -173.5v-698h-160z" />
<glyph unicode="o" horiz-adv-x="1081" d="M88 594q0 160 35 281.5t97.5 193.5t143 107.5t177.5 35.5t177.5 -35.5t143 -108t97 -193.5t34.5 -281t-35 -281t-97 -193.5t-142.5 -108.5t-177.5 -36t-177.5 36t-143 108.5t-97.5 193.5t-35 281zM248 594q0 -66 6.5 -126.5t26 -126t50.5 -113t85 -78.5t125 -31t125 31 t85 78.5t50.5 113t26 126t6.5 126.5q0 55 -5 106t-16 107.5t-33 102t-53.5 83.5t-79 59t-106.5 21t-106.5 -21t-79 -59t-53.5 -83.5t-33 -102t-16 -107.5t-5 -106z" />
<glyph unicode="p" horiz-adv-x="1073" d="M123 -369v1545h160v-191q30 103 107.5 159t174.5 56q71 0 132.5 -21t115 -69t91.5 -120.5t59.5 -181.5t21.5 -247q0 -130 -25 -233t-65 -168t-95 -107.5t-111.5 -60t-117.5 -17.5q-108 0 -184 50t-104 118v-512h-160zM283 586q0 -459 270 -459q63 0 109.5 21t83 69.5 t55 135.5t18.5 212q0 182 -30 289t-87 151t-151 44q-131 0 -199.5 -126t-68.5 -337z" />
<glyph unicode="q" horiz-adv-x="1073" d="M88 561q0 167 31 291.5t87 197t128.5 107.5t161.5 35q101 0 185.5 -50t115.5 -143l69 177h84v-1543h-159v527q-28 -68 -113.5 -124t-194.5 -56q-66 0 -122 17t-107.5 58.5t-87 106.5t-57 166.5t-21.5 232.5zM254 565q0 -169 28.5 -267t83.5 -137.5t146 -39.5 q279 0 279 465q0 220 -72 341.5t-189 121.5q-144 0 -210 -110.5t-66 -373.5z" />
<glyph unicode="r" horiz-adv-x="841" d="M123 -2v1176h156v-158q29 67 111.5 125.5t176.5 58.5q91 0 149 -38q59 -38 80 -94q18 -47 18 -105q0 -11 -1 -23l-158 -45q0 32 -5 55.5t-19.5 48t-46.5 37.5t-80 13q-71 0 -131.5 -65t-87.5 -177v-809h-162z" />
<glyph unicode="s" horiz-adv-x="931" d="M100 254q0 66 27 145l139 -16q-14 -63 -14 -92q0 -91 46.5 -136.5t160.5 -45.5t177.5 52.5t63.5 151.5q0 43 -11 71.5t-43 53t-71.5 43t-113.5 45.5l-127 47q-111 41 -167 107.5t-56 185.5q0 160 88.5 253t246.5 93q168 0 263.5 -79t94.5 -203q0 -40 -3 -56l-160 -20 q0 7 1.5 33.5t0.5 42.5q-5 65 -52 107t-136 42q-96 0 -148.5 -49t-52.5 -133q0 -66 39.5 -104.5t136.5 -75.5l139 -53q143 -55 211 -124t68 -186q0 -379 -383 -379q-185 0 -275 73t-90 206z" />
<glyph unicode="t" horiz-adv-x="643" d="M23 1036v140h163l-2 282h160l-2 -282h229v-140h-229v-747q0 -94 24 -130t105 -36q40 0 127 33v-121q-34 -20 -82.5 -34.5t-87.5 -14.5q-135 0 -190.5 57.5t-55.5 220.5v772h-159z" />
<glyph unicode="u" horiz-adv-x="999" d="M117 369v807h159v-764q0 -163 48.5 -225t160.5 -62q74 0 128 52t79 130.5t25 169.5v699h160v-1176h-160v162q-34 -81 -112.5 -131.5t-174.5 -50.5q-313 0 -313 389z" />
<glyph unicode="v" horiz-adv-x="942" d="M31 1176h170l280 -1010l283 1010h147l-333 -1176h-203z" />
<glyph unicode="w" horiz-adv-x="1390" d="M31 1176h162l215 -947l217 947h155l211 -947l211 947h158l-299 -1176h-158l-209 934l-211 -934h-161z" />
<glyph unicode="x" horiz-adv-x="954" d="M33 0l356 616l-319 560h182l225 -424l238 424h170l-316 -560l353 -616h-185l-260 475l-270 -475h-174z" />
<glyph unicode="y" horiz-adv-x="923" d="M23 1176h163l318 -967l235 967h154l-289 -1186q-46 -202 -120.5 -280.5t-198.5 -78.5q-131 0 -194.5 52t-63.5 163q0 30 10 82h156q-9 -35 -9 -80q0 -39 26.5 -63.5t68.5 -24.5q57 0 92.5 45t54.5 156z" />
<glyph unicode="z" horiz-adv-x="919" d="M59 0v121l559 915h-507v140h708v-105l-565 -926h565v-145h-760z" />
<glyph unicode="{" horiz-adv-x="782" d="M123 664v143h61q65 0 82 22.5t17 98.5v366q0 139 52.5 209t190.5 70h138v-143h-144q-40 0 -60 -34t-20 -77v-414q0 -90 -27 -130t-100 -40q63 0 95 -47.5t32 -134.5v-520q0 -111 80 -111h144v-131h-138q-133 0 -188 58.5t-55 213.5v494q0 62 -21 84.5t-78 22.5h-61z" />
<glyph unicode="|" horiz-adv-x="497" d="M176 -410v2048h146v-2048h-146z" />
<glyph unicode="}" horiz-adv-x="782" d="M84 -78h143q80 0 80 111v520q0 87 32 134.5t95 47.5q-73 0 -100 40t-27 130v414q0 43 -20 77t-60 34h-143v143h137q138 0 191 -70t53 -209v-366q0 -77 16.5 -99t81.5 -22h62v-143h-62q-57 0 -77.5 -22.5t-20.5 -84.5v-494q0 -155 -55 -213.5t-189 -58.5h-137v131z" />
<glyph unicode="~" horiz-adv-x="1075" d="M229 1395q0 96 38 145t124 49q38 0 73 -13.5t53 -27t48 -39.5l47 -43q19 -16 27.5 -22.5t21 -11.5t27.5 -5q36 0 55 29t19 72q0 30 -6 51h82q20 -48 20 -133q0 -94 -43 -137t-135 -43q-77 0 -150 73l-45 45q-48 48 -88 48q-71 0 -71 -105q0 -30 6 -57h-82q-21 44 -21 125 z" />
<glyph unicode="&#xa1;" horiz-adv-x="366" d="M80 1165v236h207v-236h-207zM82 -172l45 1069h113l45 -1069h-203z" />
<glyph unicode="&#xa2;" horiz-adv-x="987" d="M88 788q0 307 95.5 449.5t295.5 161.5v112h107v-112q157 -10 233 -100t76 -230q0 -50 -8 -82l-150 -8q6 24 6 55q0 197 -157 223v-882q92 15 132 79.5t40 182.5q0 28 -10 80l149 -6q14 -65 14 -138q0 -60 -18 -114t-55.5 -101t-102 -78.5t-149.5 -39.5v-121h-107v121 q-195 14 -293 147t-98 401zM252 842q0 -252 52.5 -354.5t174.5 -114.5v887q-119 -17 -173 -119.5t-54 -298.5z" />
<glyph unicode="&#xa3;" horiz-adv-x="1128" d="M55 160q0 178 191 178q48 0 111 -20t114 -56q55 104 55 234q0 109 -41 196h-260v142h181q-31 57 -53.5 141.5t-22.5 169.5q0 452 362 452q170 0 257 -98.5t87 -316.5q0 -58 -12 -123l-170 -19q12 68 12 152q0 154 -42 216t-136 62q-91 0 -147 -71t-56 -197 q0 -104 19.5 -188.5t70.5 -179.5h285v-142h-225q33 -105 33 -178q0 -82 -23 -168t-63 -149q124 -74 223 -74q77 0 109 51.5t32 165.5q0 79 -16 133h139q18 -74 18 -141q0 -102 -16.5 -171t-52 -110t-85 -58.5t-120.5 -17.5q-37 0 -71.5 6t-58 13t-54 23t-44 24.5t-43.5 28.5 t-38 26q-51 -57 -124.5 -89t-143.5 -32q-86 0 -133.5 49t-47.5 136zM166 158q0 -32 21.5 -49t60.5 -17q40 0 81 20.5t70 51.5q-95 59 -153 59q-80 0 -80 -65z" />
<glyph unicode="&#xa4;" horiz-adv-x="1214" d="M74 684q0 148 72 274t194.5 199.5t265.5 73.5t265 -73.5t193 -199.5t71 -274t-71 -274t-193 -199.5t-265 -73.5t-265.5 73.5t-194.5 199.5t-72 274zM264 1001l98 -307l-96 -362l207 168l295 -269l12 326l293 148l-223 86l-137 346l-51 -205z" />
<glyph unicode="&#xa5;" horiz-adv-x="1179" d="M41 1573h184l387 -752l361 752h166l-279 -557h215v-144h-284l-86 -172h370v-143h-391v-557h-168v557h-401v143h381l-90 172h-291v144h217z" />
<glyph unicode="&#xa6;" horiz-adv-x="1214" d="M74 684q0 148 72 274t194.5 199.5t265.5 73.5t265 -73.5t193 -199.5t71 -274t-71 -274t-193 -199.5t-265 -73.5t-265.5 73.5t-194.5 199.5t-72 274zM264 1001l98 -307l-96 -362l207 168l295 -269l12 326l293 148l-223 86l-137 346l-51 -205z" />
<glyph unicode="&#xa7;" horiz-adv-x="950" d="M102 88q0 66 27 145l131 -16q-14 -63 -14 -92q0 -91 48.5 -136.5t166.5 -45.5q121 0 181 49t60 155q0 82 -49 125.5t-188 94.5l-127 47q-115 40 -170 102.5t-55 183.5q0 112 36.5 181t104.5 114q-33 20 -54 37.5t-43.5 46.5t-33 71t-10.5 99q0 160 89 253t247 93 q168 0 263 -79t95 -203q0 -40 -4 -56l-154 -20q4 44 2 76q-5 65 -53 107t-141 42q-101 0 -151 -48t-50 -134q0 -68 40 -109t134 -77l139 -54q136 -49 208.5 -124t72.5 -193q0 -211 -131 -303q131 -81 131 -232q0 -378 -383 -378q-185 0 -275 72.5t-90 205.5zM256 756 q0 -80 33 -126t121 -79q118 -45 217 -84q47 47 61 96.5t14 128.5q0 68 -47 117.5t-118 77.5l-185 69q-96 -67 -96 -200z" />
<glyph unicode="&#xa8;" horiz-adv-x="1105" d="M281 1303v215h192v-215h-192zM633 1303v215h192v-215h-192z" />
<glyph unicode="&#xa9;" horiz-adv-x="1595" d="M66 813q0 196 97 363.5t264 265.5t364 98q195 0 361 -98t262.5 -265.5t96.5 -363.5q-1 -146 -58.5 -280t-154 -231t-229.5 -154.5t-278 -57.5q-147 0 -281 57.5t-231.5 154.5t-155 231t-57.5 280zM168 813q0 -129 49 -245.5t132 -200.5t197.5 -133.5t241.5 -49.5 q168 0 310.5 83.5t226.5 228.5t84 317q0 168 -83.5 314t-227 232.5t-310.5 86.5q-168 0 -311 -86.5t-226 -232t-83 -314.5zM508 760q0 177 26.5 275.5t85 141t164.5 42.5q240 0 240 -224q0 -37 -6 -75l-133 -11q10 45 10 78q0 56 -29 88.5t-88 32.5q-75 0 -104 -76t-29 -235 q0 -171 34.5 -236t111.5 -65q50 0 76 40t26 113q0 20 -8 82l131 4q12 -61 12 -117q0 -101 -58.5 -168t-187.5 -67q-67 0 -115 18t-85 59.5t-55.5 116.5t-18.5 183z" />
<glyph unicode="&#xaa;" horiz-adv-x="655" d="M2 657v105h653v-105h-653zM45 1090q0 77 60.5 130t160.5 83q37 12 69.5 22t53 16.5t51.5 16.5q0 82 -23.5 109.5t-103.5 27.5q-53 0 -76.5 -19.5t-23.5 -60.5q0 -21 8 -53l-141 -6q-10 42 -10 71q0 78 65 124t182 46q132 0 196.5 -50.5t64.5 -178.5v-313q0 -20 0.5 -26.5 t5.5 -16t16.5 -12.5t32.5 -3h20v-75q-45 -29 -108 -29q-44 0 -71 22t-30 56q-19 -32 -65 -59t-111 -27q-125 0 -174 52.5t-49 152.5zM184 1077q0 -86 103 -86q62 0 107.5 40t45.5 95v127q-6 -2 -43 -14t-57 -18q-89 -28 -122.5 -61t-33.5 -83z" />
<glyph unicode="&#xab;" horiz-adv-x="1292" d="M113 469v195l516 391v-201l-365 -289l365 -291v-200zM637 469v195l520 391v-201l-371 -289l371 -291v-200z" />
<glyph unicode="&#xac;" horiz-adv-x="1214" d="M74 684q0 148 72 274t194.5 199.5t265.5 73.5t265 -73.5t193 -199.5t71 -274t-71 -274t-193 -199.5t-265 -73.5t-265.5 73.5t-194.5 199.5t-72 274zM264 1001l98 -307l-96 -362l207 168l295 -269l12 326l293 148l-223 86l-137 346l-51 -205z" />
<glyph unicode="&#xad;" horiz-adv-x="624" d="M102 594v158h420v-158h-420z" />
<glyph unicode="&#xae;" horiz-adv-x="1595" d="M66 813q0 196 97 363.5t264 265.5t364 98q195 0 361 -98t262.5 -265.5t96.5 -363.5q-1 -146 -58.5 -280t-154 -231t-229.5 -154.5t-278 -57.5q-147 0 -281 57.5t-231.5 154.5t-155 231t-57.5 280zM168 813q0 -129 49 -245.5t132 -200.5t197.5 -133.5t241.5 -49.5 q168 0 310.5 83.5t226.5 228.5t84 317q0 168 -83.5 314t-227 232.5t-310.5 86.5q-168 0 -311 -86.5t-226 -232t-83 -314.5zM539 385v834h282q115 0 174.5 -61t59.5 -200q0 -174 -154 -190q30 -4 52.5 -12.5t37.5 -18t25.5 -29.5t16 -34.5t8.5 -46t4 -51.5t1 -62q1 -24 1 -37 q0 -52 12 -92h-133q0 1 -6.5 21.5t-9.5 38t-3 40.5v142q0 40 -31 63t-69 23h-133v-328h-135zM674 817h137q107 0 107 139q0 82 -26.5 119t-82.5 37h-135v-295z" />
<glyph unicode="&#xaf;" horiz-adv-x="1105" d="M289 1300v142h528v-142h-528z" />
<glyph unicode="&#xb0;" horiz-adv-x="819" d="M106 1294q0 126 89 214.5t215 88.5t214.5 -88.5t88.5 -214.5t-88.5 -214.5t-214.5 -88.5t-215 88.5t-89 214.5zM223 1294q0 -76 54 -130t131 -54q76 0 130 54t54 130q0 77 -54 131t-130 54t-130.5 -54.5t-54.5 -130.5z" />
<glyph unicode="&#xb1;" horiz-adv-x="1527" d="M14 1036v140h174v94q0 157 85.5 242t263.5 85q82 0 148 -27.5t108 -64.5q95 92 272 92q117 0 190 -47h150v-1550h-160v1405q-26 28 -70 51t-98 23q-108 0 -154 -40.5t-46 -127.5v-135h223v-140h-223v-1036h-160v1036h-369v-1036h-160v1036h-174zM348 1176h369v94 q0 58 14 123q-25 31 -75 58.5t-107 27.5q-108 0 -154.5 -40.5t-46.5 -127.5v-135z" />
<glyph unicode="&#xb2;" horiz-adv-x="1214" d="M74 684q0 148 72 274t194.5 199.5t265.5 73.5t265 -73.5t193 -199.5t71 -274t-71 -274t-193 -199.5t-265 -73.5t-265.5 73.5t-194.5 199.5t-72 274zM264 1001l98 -307l-96 -362l207 168l295 -269l12 326l293 148l-223 86l-137 346l-51 -205z" />
<glyph unicode="&#xb3;" horiz-adv-x="1214" d="M74 684q0 148 72 274t194.5 199.5t265.5 73.5t265 -73.5t193 -199.5t71 -274t-71 -274t-193 -199.5t-265 -73.5t-265.5 73.5t-194.5 199.5t-72 274zM264 1001l98 -307l-96 -362l207 168l295 -269l12 326l293 148l-223 86l-137 346l-51 -205z" />
<glyph unicode="&#xb4;" horiz-adv-x="1105" d="M340 1300l162 267h233v-23l-280 -244h-115z" />
<glyph unicode="&#xb5;" horiz-adv-x="1214" d="M74 684q0 148 72 274t194.5 199.5t265.5 73.5t265 -73.5t193 -199.5t71 -274t-71 -274t-193 -199.5t-265 -73.5t-265.5 73.5t-194.5 199.5t-72 274zM264 1001l98 -307l-96 -362l207 168l295 -269l12 326l293 148l-223 86l-137 346l-51 -205z" />
<glyph unicode="&#xb6;" horiz-adv-x="1193" d="M76 1049q0 118 23.5 210.5t61 150.5t89 95.5t104 52.5t109.5 15h536v-1669h-145v1554h-113v-1554h-145v657h-150q-53 0 -102 13t-99 47.5t-86.5 88t-59.5 140.5t-23 199zM397 1049q0 -203 28 -285t93 -82h78v776h-74q-45 0 -70.5 -31.5t-40 -122t-14.5 -255.5z" />
<glyph unicode="&#xb7;" horiz-adv-x="589" d="M164 893q0 60 43.5 103.5t103.5 43.5t104 -43.5t44 -103.5t-44 -104t-104 -44t-103.5 44t-43.5 104z" />
<glyph unicode="&#xb8;" horiz-adv-x="1105" d="M266 -336l64 88q80 -57 229 -57q54 0 80.5 26t26.5 60q0 43 -26.5 65.5t-72.5 22.5q-37 0 -92 -19l33 93q57 10 88 10q110 0 163.5 -46.5t53.5 -127.5q0 -88 -67.5 -138.5t-194.5 -50.5q-95 0 -169 21t-116 53z" />
<glyph unicode="&#xb9;" horiz-adv-x="1214" d="M74 684q0 148 72 274t194.5 199.5t265.5 73.5t265 -73.5t193 -199.5t71 -274t-71 -274t-193 -199.5t-265 -73.5t-265.5 73.5t-194.5 199.5t-72 274zM264 1001l98 -307l-96 -362l207 168l295 -269l12 326l293 148l-223 86l-137 346l-51 -205z" />
<glyph unicode="&#xba;" horiz-adv-x="702" d="M29 657v105h645v-105h-645zM51 1235q0 73 16.5 136t51 115t94 81.5t137.5 29.5t137.5 -29.5t94 -81.5t51 -115t16.5 -136q0 -74 -16.5 -137.5t-50.5 -115.5t-93.5 -82t-138.5 -30t-138.5 30t-93.5 82t-50.5 115.5t-16.5 137.5zM195 1233q0 -132 34.5 -190t120.5 -58 q87 0 121.5 56.5t34.5 191.5q0 130 -33 190t-123 60q-87 0 -121 -60t-34 -190z" />
<glyph unicode="&#xbb;" horiz-adv-x="1292" d="M137 74v200l371 291l-371 289v201l520 -391v-195zM666 74v200l364 291l-364 289v201l516 -391v-195z" />
<glyph unicode="&#xbc;" horiz-adv-x="1214" d="M74 684q0 148 72 274t194.5 199.5t265.5 73.5t265 -73.5t193 -199.5t71 -274t-71 -274t-193 -199.5t-265 -73.5t-265.5 73.5t-194.5 199.5t-72 274zM264 1001l98 -307l-96 -362l207 168l295 -269l12 326l293 148l-223 86l-137 346l-51 -205z" />
<glyph unicode="&#xbd;" horiz-adv-x="1214" d="M74 684q0 148 72 274t194.5 199.5t265.5 73.5t265 -73.5t193 -199.5t71 -274t-71 -274t-193 -199.5t-265 -73.5t-265.5 73.5t-194.5 199.5t-72 274zM264 1001l98 -307l-96 -362l207 168l295 -269l12 326l293 148l-223 86l-137 346l-51 -205z" />
<glyph unicode="&#xbe;" horiz-adv-x="1214" d="M74 684q0 148 72 274t194.5 199.5t265.5 73.5t265 -73.5t193 -199.5t71 -274t-71 -274t-193 -199.5t-265 -73.5t-265.5 73.5t-194.5 199.5t-72 274zM264 1001l98 -307l-96 -362l207 168l295 -269l12 326l293 148l-223 86l-137 346l-51 -205z" />
<glyph unicode="&#xbf;" horiz-adv-x="946" d="M106 279q0 121 16 212t43.5 149t70 94t89.5 50.5t107 14.5q82 0 141 -31t80 -90q-10 96 -10 153v130h131v-541h-112q-2 50 -13.5 92.5t-33 79t-59 57.5t-87.5 21q-107 0 -147.5 -84t-40.5 -297q0 -156 57.5 -248t171.5 -92q116 0 159.5 51.5t43.5 155.5q0 45 -21 102h148 q20 -58 20 -135q0 -66 -19.5 -121.5t-60 -101t-111 -71.5t-163.5 -26q-189 0 -294.5 125t-105.5 351zM594 1165v236h211v-236h-211z" />
<glyph unicode="&#xc0;" horiz-adv-x="1232" d="M41 0l438 1573h252l461 -1573h-180l-111 385h-596l-102 -385h-162zM299 1829v18h233l162 -227h-114zM340 522h528l-266 922z" />
<glyph unicode="&#xc1;" horiz-adv-x="1232" d="M41 0l438 1573h252l461 -1573h-180l-111 385h-596l-102 -385h-162zM340 522h528l-266 922zM483 1620l162 227h234v-18l-281 -209h-115z" />
<glyph unicode="&#xc2;" horiz-adv-x="1232" d="M41 0l438 1573h252l461 -1573h-180l-111 385h-596l-102 -385h-162zM340 522h528l-266 922zM346 1620l182 221h148l182 -221h-100l-156 104l-156 -104h-100z" />
<glyph unicode="&#xc3;" horiz-adv-x="1232" d="M41 0l438 1573h252l461 -1573h-180l-111 385h-596l-102 -385h-162zM299 1724q0 77 36 116.5t118 39.5q36 0 68.5 -10.5t50 -21.5t44.5 -31l46 -35q43 -31 71 -31q46 0 62 36.5t4 84.5h78q18 -41 18 -107q0 -75 -40.5 -109t-127.5 -34q-74 0 -143 59l-43 35q-46 39 -82 39 q-33 0 -50.5 -21.5t-17.5 -50.5t6 -57h-80q-18 34 -18 98zM340 522h528l-266 922z" />
<glyph unicode="&#xc4;" horiz-adv-x="1232" d="M41 0l438 1573h252l461 -1573h-180l-111 385h-596l-102 -385h-162zM332 1622v182h192v-182h-192zM340 522h528l-266 922zM684 1622v182h193v-182h-193z" />
<glyph unicode="&#xc5;" horiz-adv-x="1232" d="M-2 0l436 1554q-72 62 -72 148q0 81 57.5 137.5t139.5 56.5q84 0 142.5 -56.5t58.5 -137.5q0 -83 -70 -146l459 -1556h-180l-111 385h-596l-102 -385h-162zM297 522h528l-266 922zM465 1702q0 -36 29 -64t65 -28q38 0 67 27.5t29 64.5t-29 64.5t-67 27.5q-36 0 -65 -28 t-29 -64z" />
<glyph unicode="&#xc6;" horiz-adv-x="1720" d="M-43 0l721 1573h932v-141h-656v-553h600v-142h-600v-596h703v-141h-871v385h-481l-168 -385h-180zM367 522h419v922z" />
<glyph unicode="&#xc7;" horiz-adv-x="1273" d="M92 758q0 225 38.5 387.5t114 261t179.5 144.5t242 46q123 0 215.5 -32.5t147 -85t86 -126t39.5 -149.5t1 -162h-176q14 116 -16 209.5t-105 150t-184 56.5q-207 0 -305.5 -164t-98.5 -520q0 -334 95.5 -494.5t314.5 -160.5q58 0 103 12t76 31t53 53t34 65.5t20 83.5 t10.5 91.5t4.5 103.5l174 -16q-6 -288 -117 -428t-360 -140q-144 0 -250.5 43t-182.5 135t-114.5 243t-38.5 362zM348 -336l64 88q80 -57 229 -57q54 0 80.5 26t26.5 60q0 43 -26.5 65.5t-72.5 22.5q-37 0 -92 -19l33 93q57 10 88 10q110 0 163.5 -46.5t53.5 -127.5 q0 -88 -67.5 -138.5t-194.5 -50.5q-95 0 -169 21t-116 53z" />
<glyph unicode="&#xc8;" horiz-adv-x="1060" d="M127 0v1573h823v-141h-655v-553h600v-142h-600v-596h702v-141h-870zM303 1829v18h234l161 -227h-114z" />
<glyph unicode="&#xc9;" horiz-adv-x="1060" d="M127 0v1573h823v-141h-655v-553h600v-142h-600v-596h702v-141h-870zM483 1620l162 227h234v-18l-281 -209h-115z" />
<glyph unicode="&#xca;" horiz-adv-x="1060" d="M127 0v1573h823v-141h-655v-553h600v-142h-600v-596h702v-141h-870zM283 1620l182 221h147l183 -221h-101l-155 104l-156 -104h-100z" />
<glyph unicode="&#xcb;" horiz-adv-x="1060" d="M127 0v1573h823v-141h-655v-553h600v-142h-600v-596h702v-141h-870zM289 1622v182h192v-182h-192zM641 1622v182h193v-182h-193z" />
<glyph unicode="&#xcc;" horiz-adv-x="423" d="M-100 1829v18h233l162 -227h-115zM127 0v1573h170v-1573h-170z" />
<glyph unicode="&#xcd;" horiz-adv-x="423" d="M127 0v1573h170v-1573h-170zM164 1620l162 227h233v-18l-280 -209h-115z" />
<glyph unicode="&#xce;" horiz-adv-x="423" d="M-37 1620l182 221h148l182 -221h-100l-156 104l-156 -104h-100zM127 0v1573h170v-1573h-170z" />
<glyph unicode="&#xcf;" horiz-adv-x="423" d="M-59 1620v182h192v-182h-192zM127 0v1573h170v-1573h-170zM293 1620v182h192v-182h-192z" />
<glyph unicode="&#xd0;" horiz-adv-x="1306" d="M20 698v162h127v713h455q133 0 242.5 -49t192.5 -146.5t129 -255.5t46 -364q0 -207 -35.5 -348t-117.5 -234t-211.5 -134.5t-321.5 -41.5h-379v698h-127zM315 147h201q143 0 238.5 28.5t162.5 98t97 187.5t30 297q0 335 -120 501t-373 166h-236v-565h297v-162h-297v-551z " />
<glyph unicode="&#xd1;" horiz-adv-x="1253" d="M127 0v1573h215l633 -1323v1323h151v-1573h-215l-632 1323v-1323h-152zM340 1724q0 77 36 116.5t118 39.5q36 0 68.5 -10.5t50 -21.5t44.5 -31l45 -35q43 -31 72 -31q46 0 62 36.5t4 84.5h78q18 -41 18 -107q0 -75 -40.5 -109t-127.5 -34q-74 0 -143 59l-43 35 q-46 39 -82 39q-33 0 -50.5 -21.5t-17.5 -50.5t6 -57h-80q-18 34 -18 98z" />
<glyph unicode="&#xd2;" horiz-adv-x="1339" d="M92 786q0 411 148.5 611t429.5 200q282 0 429.5 -200.5t147.5 -610.5q0 -420 -136 -615.5t-441 -195.5q-300 0 -439 192.5t-139 618.5zM264 786q0 -359 95.5 -515t310.5 -156q223 0 314 158.5t91 512.5q0 672 -405 672q-406 0 -406 -672zM369 1837v18h233l162 -227h-115z " />
<glyph unicode="&#xd3;" horiz-adv-x="1339" d="M92 786q0 411 148.5 611t429.5 200q282 0 429.5 -200.5t147.5 -610.5q0 -420 -136 -615.5t-441 -195.5q-300 0 -439 192.5t-139 618.5zM264 786q0 -359 95.5 -515t310.5 -156q223 0 314 158.5t91 512.5q0 672 -405 672q-406 0 -406 -672zM559 1632l162 228h233v-19 l-280 -209h-115z" />
<glyph unicode="&#xd4;" horiz-adv-x="1339" d="M92 786q0 411 148.5 611t429.5 200q282 0 429.5 -200.5t147.5 -610.5q0 -420 -136 -615.5t-441 -195.5q-300 0 -439 192.5t-139 618.5zM264 786q0 -359 95.5 -515t310.5 -156q223 0 314 158.5t91 512.5q0 672 -405 672q-406 0 -406 -672zM412 1620l182 221h147l183 -221 h-101l-155 104l-156 -104h-100z" />
<glyph unicode="&#xd5;" horiz-adv-x="1339" d="M92 786q0 411 148.5 611t429.5 200q282 0 429.5 -200.5t147.5 -610.5q0 -420 -136 -615.5t-441 -195.5q-300 0 -439 192.5t-139 618.5zM264 786q0 -359 95.5 -515t310.5 -156q223 0 314 158.5t91 512.5q0 672 -405 672q-406 0 -406 -672zM383 1724q0 77 36 116.5 t118 39.5q36 0 68.5 -10.5t50 -21.5t44.5 -31l45 -35q43 -31 72 -31q46 0 62 36.5t4 84.5h78q18 -41 18 -107q0 -75 -40.5 -109t-127.5 -34q-74 0 -143 59l-43 35q-46 39 -82 39q-33 0 -50.5 -21.5t-17.5 -50.5t6 -57h-80q-18 34 -18 98z" />
<glyph unicode="&#xd6;" horiz-adv-x="1339" d="M92 786q0 411 148.5 611t429.5 200q282 0 429.5 -200.5t147.5 -610.5q0 -420 -136 -615.5t-441 -195.5q-300 0 -439 192.5t-139 618.5zM264 786q0 -359 95.5 -515t310.5 -156q223 0 314 158.5t91 512.5q0 672 -405 672q-406 0 -406 -672zM322 1638v183h192v-183h-192z M825 1638v183h193v-183h-193z" />
<glyph unicode="&#xd7;" horiz-adv-x="1214" d="M74 684q0 148 72 274t194.5 199.5t265.5 73.5t265 -73.5t193 -199.5t71 -274t-71 -274t-193 -199.5t-265 -73.5t-265.5 73.5t-194.5 199.5t-72 274zM264 1001l98 -307l-96 -362l207 168l295 -269l12 326l293 148l-223 86l-137 346l-51 -205z" />
<glyph unicode="&#xd8;" horiz-adv-x="1339" d="M92 0l127 188q-127 201 -127 598q0 411 148.5 611t429.5 200q248 0 391 -155l88 131h98l-133 -199q133 -206 133 -588q0 -420 -136 -615.5t-441 -195.5q-262 0 -400 144l-80 -119h-98zM264 786q0 -287 60 -442l643 956q-101 158 -297 158q-406 0 -406 -672zM367 262 q97 -147 303 -147q223 0 314 158.5t91 512.5q0 273 -65 433z" />
<glyph unicode="&#xd9;" horiz-adv-x="1249" d="M119 508v1065h168v-1145q0 -47 9.5 -88.5t34.5 -82.5t63.5 -70.5t100.5 -47.5t142 -18q77 0 136 19.5t94 50.5t57.5 73.5t30.5 83t8 84.5v1141h167v-1061q0 -105 -11 -181.5t-43 -147t-86 -114t-142.5 -69t-210.5 -25.5q-149 0 -249 31t-159.5 99t-84.5 164.5t-25 238.5z M381 1829v18h233l162 -227h-114z" />
<glyph unicode="&#xda;" horiz-adv-x="1249" d="M119 508v1065h168v-1145q0 -47 9.5 -88.5t34.5 -82.5t63.5 -70.5t100.5 -47.5t142 -18q77 0 136 19.5t94 50.5t57.5 73.5t30.5 83t8 84.5v1141h167v-1061q0 -105 -11 -181.5t-43 -147t-86 -114t-142.5 -69t-210.5 -25.5q-149 0 -249 31t-159.5 99t-84.5 164.5t-25 238.5z M524 1620l162 227h234v-18l-281 -209h-115z" />
<glyph unicode="&#xdb;" horiz-adv-x="1249" d="M119 508v1065h168v-1145q0 -47 9.5 -88.5t34.5 -82.5t63.5 -70.5t100.5 -47.5t142 -18q77 0 136 19.5t94 50.5t57.5 73.5t30.5 83t8 84.5v1141h167v-1061q0 -105 -11 -181.5t-43 -147t-86 -114t-142.5 -69t-210.5 -25.5q-149 0 -249 31t-159.5 99t-84.5 164.5t-25 238.5z M375 1620l182 221h148l182 -221h-101l-155 104l-156 -104h-100z" />
<glyph unicode="&#xdc;" horiz-adv-x="1249" d="M119 508v1065h168v-1145q0 -47 9.5 -88.5t34.5 -82.5t63.5 -70.5t100.5 -47.5t142 -18q77 0 136 19.5t94 50.5t57.5 73.5t30.5 83t8 84.5v1141h167v-1061q0 -105 -11 -181.5t-43 -147t-86 -114t-142.5 -69t-210.5 -25.5q-149 0 -249 31t-159.5 99t-84.5 164.5t-25 238.5z M330 1638v183h192v-183h-192zM727 1638v183h193v-183h-193z" />
<glyph unicode="&#xdd;" horiz-adv-x="1146" d="M25 1573h184l387 -750l360 750h166l-454 -914v-659h-168v659zM416 1622l162 266h233v-22l-281 -244h-114z" />
<glyph unicode="&#xde;" horiz-adv-x="1120" d="M127 0v1573h168v-334h248q120 0 211.5 -26.5t160.5 -84t104.5 -154.5t35.5 -231q0 -98 -26 -174.5t-71 -126.5t-110 -82.5t-138.5 -46.5t-160.5 -14h-254v-299h-168zM295 442h287q147 0 226 83t79 227q0 153 -80.5 249.5t-218.5 96.5h-293v-656z" />
<glyph unicode="&#xdf;" horiz-adv-x="972" d="M127 0v1206q0 197 90 294t234 97q98 0 172 -32t117.5 -89t65 -129.5t21.5 -158.5q0 -145 -59 -238.5t-180 -99.5q137 -11 215 -115t78 -291q0 -232 -101 -338t-331 -106h-56v143h13q95 0 154 16t94 58t48 103.5t13 162.5q0 275 -273 275h-14v139h18q119 0 167.5 59.5 t48.5 227.5q0 123 -50.5 199.5t-144.5 76.5q-84 0 -129 -61.5t-45 -175.5v-1223h-166z" />
<glyph unicode="&#xe0;" d="M80 311q0 134 88.5 226t239.5 141q130 43 297 59q0 104 -11.5 169t-40 102.5t-68.5 51t-104 13.5q-59 0 -99 -14.5t-58.5 -42t-25.5 -55t-7 -64.5q0 -25 8 -53l-166 -15q-8 56 -8 89q0 136 94 215t268 79q96 0 163.5 -19.5t116.5 -65t72 -123.5t23 -193v-588 q0 -52 18.5 -75t77.5 -23h27v-98q-57 -43 -139 -43q-133 0 -133 206q-18 -60 -53 -104t-78.5 -67t-85.5 -33.5t-84 -10.5q-159 0 -245.5 88.5t-86.5 247.5zM242 291q0 -86 48.5 -126t149.5 -40q102 0 183.5 83.5t81.5 201.5v192q-28 0 -93 -11t-106 -24 q-143 -47 -203.5 -111.5t-60.5 -164.5zM242 1526v22h233l162 -266h-115z" />
<glyph unicode="&#xe1;" d="M80 311q0 134 88.5 226t239.5 141q130 43 297 59q0 104 -11.5 169t-40 102.5t-68.5 51t-104 13.5q-59 0 -99 -14.5t-58.5 -42t-25.5 -55t-7 -64.5q0 -25 8 -53l-166 -15q-8 56 -8 89q0 136 94 215t268 79q96 0 163.5 -19.5t116.5 -65t72 -123.5t23 -193v-588 q0 -52 18.5 -75t77.5 -23h27v-98q-57 -43 -139 -43q-133 0 -133 206q-18 -60 -53 -104t-78.5 -67t-85.5 -33.5t-84 -10.5q-159 0 -245.5 88.5t-86.5 247.5zM242 291q0 -86 48.5 -126t149.5 -40q102 0 183.5 83.5t81.5 201.5v192q-28 0 -93 -11t-106 -24 q-143 -47 -203.5 -111.5t-60.5 -164.5zM352 1280l162 266h234v-22l-281 -244h-115z" />
<glyph unicode="&#xe2;" d="M80 311q0 134 88.5 226t239.5 141q130 43 297 59q0 104 -11.5 169t-40 102.5t-68.5 51t-104 13.5q-59 0 -99 -14.5t-58.5 -42t-25.5 -55t-7 -64.5q0 -25 8 -53l-166 -15q-8 56 -8 89q0 136 94 215t268 79q96 0 163.5 -19.5t116.5 -65t72 -123.5t23 -193v-588 q0 -52 18.5 -75t77.5 -23h27v-98q-57 -43 -139 -43q-133 0 -133 206q-18 -60 -53 -104t-78.5 -67t-85.5 -33.5t-84 -10.5q-159 0 -245.5 88.5t-86.5 247.5zM242 291q0 -86 48.5 -126t149.5 -40q102 0 183.5 83.5t81.5 201.5v192q-28 0 -93 -11t-106 -24 q-143 -47 -203.5 -111.5t-60.5 -164.5zM244 1280l182 258h147l183 -258h-101l-155 121l-156 -121h-100z" />
<glyph unicode="&#xe3;" d="M80 311q0 134 88.5 226t239.5 141q130 43 297 59q0 104 -11.5 169t-40 102.5t-68.5 51t-104 13.5q-59 0 -99 -14.5t-58.5 -42t-25.5 -55t-7 -64.5q0 -25 8 -53l-166 -15q-8 56 -8 89q0 136 94 215t268 79q96 0 163.5 -19.5t116.5 -65t72 -123.5t23 -193v-588 q0 -52 18.5 -75t77.5 -23h27v-98q-57 -43 -139 -43q-133 0 -133 206q-18 -60 -53 -104t-78.5 -67t-85.5 -33.5t-84 -10.5q-159 0 -245.5 88.5t-86.5 247.5zM197 1391q0 77 35.5 116t117.5 39q36 0 69 -10.5t51 -21.5t44 -31l45 -35q43 -31 72 -31q46 0 61.5 36.5t3.5 84.5 h78q19 -44 19 -106q0 -75 -40.5 -109.5t-127.5 -34.5q-74 0 -144 60l-43 34q-46 39 -82 39q-33 0 -50 -21.5t-17 -50.5t6 -57h-80q-18 34 -18 99zM242 291q0 -86 48.5 -126t149.5 -40q102 0 183.5 83.5t81.5 201.5v192q-28 0 -93 -11t-106 -24q-143 -47 -203.5 -111.5 t-60.5 -164.5z" />
<glyph unicode="&#xe4;" d="M80 311q0 134 88.5 226t239.5 141q130 43 297 59q0 104 -11.5 169t-40 102.5t-68.5 51t-104 13.5q-59 0 -99 -14.5t-58.5 -42t-25.5 -55t-7 -64.5q0 -25 8 -53l-166 -15q-8 56 -8 89q0 136 94 215t268 79q96 0 163.5 -19.5t116.5 -65t72 -123.5t23 -193v-588 q0 -52 18.5 -75t77.5 -23h27v-98q-57 -43 -139 -43q-133 0 -133 206q-18 -60 -53 -104t-78.5 -67t-85.5 -33.5t-84 -10.5q-159 0 -245.5 88.5t-86.5 247.5zM227 1303v215h193v-215h-193zM242 291q0 -86 48.5 -126t149.5 -40q102 0 183.5 83.5t81.5 201.5v192q-28 0 -93 -11 t-106 -24q-143 -47 -203.5 -111.5t-60.5 -164.5zM580 1303v215h192v-215h-192z" />
<glyph unicode="&#xe5;" d="M80 311q0 134 88.5 226t239.5 141q130 43 297 59q0 104 -11.5 169t-40 102.5t-68.5 51t-104 13.5q-59 0 -99 -14.5t-58.5 -42t-25.5 -55t-7 -64.5q0 -25 8 -53l-166 -15q-8 56 -8 89q0 136 94 215t268 79q96 0 163.5 -19.5t116.5 -65t72 -123.5t23 -193v-588 q0 -52 18.5 -75t77.5 -23h27v-98q-57 -43 -139 -43q-133 0 -133 206q-18 -60 -53 -104t-78.5 -67t-85.5 -33.5t-84 -10.5q-159 0 -245.5 88.5t-86.5 247.5zM242 291q0 -86 48.5 -126t149.5 -40q102 0 183.5 83.5t81.5 201.5v192q-28 0 -93 -11t-106 -24 q-143 -47 -203.5 -111.5t-60.5 -164.5zM303 1475q0 81 57.5 137.5t139.5 56.5q83 0 141.5 -56t58.5 -138q0 -80 -58.5 -137.5t-141.5 -57.5q-81 0 -139 57.5t-58 137.5zM406 1475q0 -36 29 -64.5t65 -28.5q38 0 67 28t29 65t-29 64.5t-67 27.5q-36 0 -65 -28t-29 -64z" />
<glyph unicode="&#xe6;" horiz-adv-x="1622" d="M84 311q0 134 88.5 226t239.5 141q130 43 297 59q0 104 -11.5 169t-40 102.5t-68.5 51t-104 13.5q-59 0 -99 -14.5t-58.5 -42t-25.5 -55t-7 -64.5q0 -25 8 -53l-166 -15q-8 56 -8 89q0 136 94.5 215t268.5 79q126 0 205 -35t116 -116q39 72 128 111.5t204 39.5 q183 0 285.5 -116.5t117.5 -347.5q7 -92 2 -185h-684q0 -36 4 -98q12 -190 80.5 -269t216.5 -79q211 0 219 221l-2 47l158 -16q5 -27 2 -76q-11 -150 -112 -234t-283 -84q-155 0 -253.5 67t-137.5 194q-39 -121 -132.5 -191t-209.5 -70q-159 0 -245.5 88.5t-86.5 247.5z M246 291q0 -86 48.5 -126t149.5 -40q102 0 183.5 83.5t81.5 201.5v192q-28 0 -93 -11t-106 -24q-143 -47 -203.5 -111.5t-60.5 -164.5zM866 696h518q0 68 -6 123q-36 254 -235 254q-129 0 -203 -100t-74 -277z" />
<glyph unicode="&#xe7;" horiz-adv-x="989" d="M88 561q0 238 52 382.5t150.5 206.5t254.5 62q177 0 263.5 -97.5t86.5 -256.5q0 -46 -8 -86l-150 -8q6 21 6 57q0 246 -213 246q-147 0 -212.5 -111t-65.5 -340q0 -198 30 -307.5t87.5 -150.5t158.5 -41q125 0 177.5 70t52.5 212q0 38 -10 86l149 -8q14 -68 14 -145 q0 -69 -21.5 -130.5t-65 -113.5t-120 -82.5t-176.5 -30.5q-220 0 -330 141.5t-110 444.5zM225 -336l64 88q80 -57 229 -57q54 0 80.5 26t26.5 60q0 43 -26.5 65.5t-72.5 22.5q-37 0 -92 -19l33 93q57 10 88 10q110 0 163.5 -46.5t53.5 -127.5q0 -88 -67.5 -138.5 t-194.5 -50.5q-95 0 -169 21t-116 53z" />
<glyph unicode="&#xe8;" horiz-adv-x="1040" d="M88 571q0 178 28.5 302t86.5 198.5t138 107.5t191 33q183 0 286 -116.5t118 -347.5q4 -62 4 -109q0 -51 -2 -76h-684q0 -36 4 -98q12 -190 80.5 -269t216.5 -79q211 0 219 221l-2 47l158 -16q5 -27 2 -76q-11 -150 -112 -234t-283 -84q-237 0 -343 136.5t-106 459.5z M254 696h518q0 68 -6 123q-36 254 -236 254q-129 0 -202.5 -100t-73.5 -277zM266 1524v22h234l162 -266h-115z" />
<glyph unicode="&#xe9;" horiz-adv-x="1040" d="M88 571q0 178 28.5 302t86.5 198.5t138 107.5t191 33q183 0 286 -116.5t118 -347.5q4 -62 4 -109q0 -51 -2 -76h-684q0 -36 4 -98q12 -190 80.5 -269t216.5 -79q211 0 219 221l-2 47l158 -16q5 -27 2 -76q-11 -150 -112 -234t-283 -84q-237 0 -343 136.5t-106 459.5z M254 696h518q0 68 -6 123q-36 254 -236 254q-129 0 -202.5 -100t-73.5 -277zM434 1280l162 266h233v-22l-280 -244h-115z" />
<glyph unicode="&#xea;" horiz-adv-x="1040" d="M88 571q0 178 28.5 302t86.5 198.5t138 107.5t191 33q183 0 286 -116.5t118 -347.5q4 -62 4 -109q0 -51 -2 -76h-684q0 -36 4 -98q12 -190 80.5 -269t216.5 -79q211 0 219 221l-2 47l158 -16q5 -27 2 -76q-11 -150 -112 -234t-283 -84q-237 0 -343 136.5t-106 459.5z M254 696h518q0 68 -6 123q-36 254 -236 254q-129 0 -202.5 -100t-73.5 -277zM274 1282l183 258h147l182 -258h-100l-156 121l-155 -121h-101z" />
<glyph unicode="&#xeb;" horiz-adv-x="1040" d="M88 571q0 178 28.5 302t86.5 198.5t138 107.5t191 33q183 0 286 -116.5t118 -347.5q4 -62 4 -109q0 -51 -2 -76h-684q0 -36 4 -98q12 -190 80.5 -269t216.5 -79q211 0 219 221l-2 47l158 -16q5 -27 2 -76q-11 -150 -112 -234t-283 -84q-237 0 -343 136.5t-106 459.5z M254 696h518q0 68 -6 123q-36 254 -236 254q-129 0 -202.5 -100t-73.5 -277zM256 1282v215h193v-215h-193zM608 1282v215h193v-215h-193z" />
<glyph unicode="&#xec;" horiz-adv-x="405" d="M-86 1526v22h233l162 -266h-114zM123 0v1176h160v-1176h-160z" />
<glyph unicode="&#xed;" horiz-adv-x="405" d="M111 1282l161 266h234v-22l-281 -244h-114zM123 0v1176h160v-1176h-160z" />
<glyph unicode="&#xee;" horiz-adv-x="405" d="M-49 1282l182 258h148l182 -258h-101l-155 121l-156 -121h-100zM123 0v1176h160v-1176h-160z" />
<glyph unicode="&#xef;" horiz-adv-x="405" d="M-66 1282v215h193v-215h-193zM123 0v1176h160v-1176h-160zM287 1282v215h192v-215h-192z" />
<glyph unicode="&#xf0;" horiz-adv-x="1077" d="M88 561q0 167 31 291.5t87 197t128.5 107.5t161.5 35q173 0 252 -107q-28 155 -109 281q-49 -21 -59 -52t14 -61l-94 -32q-39 41 -48.5 84t14.5 86.5t83 78.5q-61 52 -121 52q-69 0 -164 -68l-74 113q46 31 115 51t133 20q79 0 140 -30.5t122 -94.5q87 25 39 93l95 32 q41 -43 52.5 -89t-11 -89t-80.5 -71q72 -135 114.5 -328t42.5 -424q0 -154 -40.5 -281.5t-107 -208t-149.5 -124t-172 -43.5q-66 0 -122 17t-107.5 58.5t-87 106.5t-57 166.5t-21.5 232.5zM252 565q0 -161 33.5 -259.5t92.5 -138.5t150 -40q60 0 106 23t82 74t55.5 142.5 t19.5 219.5q0 216 -79 339.5t-192 123.5q-97 0 -154 -43.5t-85.5 -149.5t-28.5 -291z" />
<glyph unicode="&#xf1;" horiz-adv-x="999" d="M123 0v1176h160v-172q38 93 113 142.5t173 49.5q314 0 314 -389v-807h-160v764q0 163 -48.5 225t-160.5 62q-74 0 -127.5 -50.5t-78.5 -129t-25 -173.5v-698h-160zM207 1382q0 77 35.5 116.5t117.5 39.5q36 0 69 -10.5t51 -21.5t44 -31l45 -35q43 -31 72 -31 q46 0 62 36.5t4 84.5h77q19 -44 19 -107q0 -75 -40.5 -109t-127.5 -34q-74 0 -143 59l-43 35q-46 39 -82 39q-33 0 -50.5 -21.5t-17.5 -50.5t6 -57h-80q-18 34 -18 98z" />
<glyph unicode="&#xf2;" horiz-adv-x="1081" d="M88 594q0 160 35 281.5t97.5 193.5t143 107.5t177.5 35.5t177.5 -35.5t143 -108t97 -193.5t34.5 -281t-35 -281t-97 -193.5t-142.5 -108.5t-177.5 -36t-177.5 36t-143 108.5t-97.5 193.5t-35 281zM248 594q0 -66 6.5 -126.5t26 -126t50.5 -113t85 -78.5t125 -31t125 31 t85 78.5t50.5 113t26 126t6.5 126.5q0 55 -5 106t-16 107.5t-33 102t-53.5 83.5t-79 59t-106.5 21t-106.5 -21t-79 -59t-53.5 -83.5t-33 -102t-16 -107.5t-5 -106zM254 1526v22h233l162 -266h-114z" />
<glyph unicode="&#xf3;" horiz-adv-x="1081" d="M88 594q0 160 35 281.5t97.5 193.5t143 107.5t177.5 35.5t177.5 -35.5t143 -108t97 -193.5t34.5 -281t-35 -281t-97 -193.5t-142.5 -108.5t-177.5 -36t-177.5 36t-143 108.5t-97.5 193.5t-35 281zM248 594q0 -66 6.5 -126.5t26 -126t50.5 -113t85 -78.5t125 -31t125 31 t85 78.5t50.5 113t26 126t6.5 126.5q0 55 -5 106t-16 107.5t-33 102t-53.5 83.5t-79 59t-106.5 21t-106.5 -21t-79 -59t-53.5 -83.5t-33 -102t-16 -107.5t-5 -106zM418 1282l162 266h233v-22l-281 -244h-114z" />
<glyph unicode="&#xf4;" horiz-adv-x="1081" d="M88 594q0 160 35 281.5t97.5 193.5t143 107.5t177.5 35.5t177.5 -35.5t143 -108t97 -193.5t34.5 -281t-35 -281t-97 -193.5t-142.5 -108.5t-177.5 -36t-177.5 36t-143 108.5t-97.5 193.5t-35 281zM248 594q0 -66 6.5 -126.5t26 -126t50.5 -113t85 -78.5t125 -31t125 31 t85 78.5t50.5 113t26 126t6.5 126.5q0 55 -5 106t-16 107.5t-33 102t-53.5 83.5t-79 59t-106.5 21t-106.5 -21t-79 -59t-53.5 -83.5t-33 -102t-16 -107.5t-5 -106zM291 1282l182 258h148l182 -258h-101l-155 121l-156 -121h-100z" />
<glyph unicode="&#xf5;" horiz-adv-x="1081" d="M88 594q0 160 35 281.5t97.5 193.5t143 107.5t177.5 35.5t177.5 -35.5t143 -108t97 -193.5t34.5 -281t-35 -281t-97 -193.5t-142.5 -108.5t-177.5 -36t-177.5 36t-143 108.5t-97.5 193.5t-35 281zM248 594q0 -66 6.5 -126.5t26 -126t50.5 -113t85 -78.5t125 -31t125 31 t85 78.5t50.5 113t26 126t6.5 126.5q0 55 -5 106t-16 107.5t-33 102t-53.5 83.5t-79 59t-106.5 21t-106.5 -21t-79 -59t-53.5 -83.5t-33 -102t-16 -107.5t-5 -106zM248 1382q0 77 35.5 116.5t117.5 39.5q36 0 69 -10.5t51 -21.5t44 -31l45 -35q43 -31 72 -31q46 0 62 36.5 t4 84.5h77q19 -44 19 -107q0 -75 -40.5 -109t-127.5 -34q-75 0 -144 59l-43 35q-46 39 -81 39q-33 0 -50.5 -21.5t-17.5 -50.5t6 -57h-80q-18 34 -18 98z" />
<glyph unicode="&#xf6;" horiz-adv-x="1081" d="M88 594q0 160 35 281.5t97.5 193.5t143 107.5t177.5 35.5t177.5 -35.5t143 -108t97 -193.5t34.5 -281t-35 -281t-97 -193.5t-142.5 -108.5t-177.5 -36t-177.5 36t-143 108.5t-97.5 193.5t-35 281zM248 594q0 -66 6.5 -126.5t26 -126t50.5 -113t85 -78.5t125 -31t125 31 t85 78.5t50.5 113t26 126t6.5 126.5q0 55 -5 106t-16 107.5t-33 102t-53.5 83.5t-79 59t-106.5 21t-106.5 -21t-79 -59t-53.5 -83.5t-33 -102t-16 -107.5t-5 -106zM274 1282v215h193v-215h-193zM627 1282v215h192v-215h-192z" />
<glyph unicode="&#xf7;" horiz-adv-x="1214" d="M74 684q0 148 72 274t194.5 199.5t265.5 73.5t265 -73.5t193 -199.5t71 -274t-71 -274t-193 -199.5t-265 -73.5t-265.5 73.5t-194.5 199.5t-72 274zM264 1001l98 -307l-96 -362l207 168l295 -269l12 326l293 148l-223 86l-137 346l-51 -205z" />
<glyph unicode="&#xf8;" horiz-adv-x="1081" d="M88 -25l113 172q-113 157 -113 447q0 160 35 281.5t97.5 193.5t143 107.5t177.5 35.5q175 0 286 -108l72 108h94l-112 -170q112 -156 112 -448q0 -160 -35 -281t-97 -193.5t-142.5 -108.5t-177.5 -36q-172 0 -287 109l-72 -109h-94zM248 594q0 -183 49 -299l444 678 q-70 100 -200 100q-59 0 -106.5 -21t-79 -59t-53.5 -83.5t-33 -102t-16 -107.5t-5 -106zM340 217q71 -98 201 -98q71 0 125 31t85 78.5t50.5 113t26 126t6.5 126.5q0 183 -50 301z" />
<glyph unicode="&#xf9;" horiz-adv-x="999" d="M117 369v807h159v-764q0 -163 48.5 -225t160.5 -62q74 0 128 52t79 130.5t25 169.5v699h160v-1176h-160v162q-34 -81 -112.5 -131.5t-174.5 -50.5q-313 0 -313 389zM225 1526v22h234l162 -266h-115z" />
<glyph unicode="&#xfa;" horiz-adv-x="999" d="M117 369v807h159v-764q0 -163 48.5 -225t160.5 -62q74 0 128 52t79 130.5t25 169.5v699h160v-1176h-160v162q-34 -81 -112.5 -131.5t-174.5 -50.5q-313 0 -313 389zM393 1282l162 266h233v-22l-280 -244h-115z" />
<glyph unicode="&#xfb;" horiz-adv-x="999" d="M117 369v807h159v-764q0 -163 48.5 -225t160.5 -62q74 0 128 52t79 130.5t25 169.5v699h160v-1176h-160v162q-34 -81 -112.5 -131.5t-174.5 -50.5q-313 0 -313 389zM250 1282l182 258h148l182 -258h-100l-156 121l-156 -121h-100z" />
<glyph unicode="&#xfc;" horiz-adv-x="999" d="M117 369v807h159v-764q0 -163 48.5 -225t160.5 -62q74 0 128 52t79 130.5t25 169.5v699h160v-1176h-160v162q-34 -81 -112.5 -131.5t-174.5 -50.5q-313 0 -313 389zM233 1282v215h193v-215h-193zM586 1282v215h192v-215h-192z" />
<glyph unicode="&#xfd;" horiz-adv-x="923" d="M23 1176h163l318 -967l235 967h154l-289 -1186q-46 -202 -120.5 -280.5t-198.5 -78.5q-131 0 -194.5 52t-63.5 163q0 30 10 82h156q-9 -35 -9 -80q0 -39 26.5 -63.5t68.5 -24.5q57 0 92.5 45t54.5 156zM377 1280l162 266h233v-22l-280 -244h-115z" />
<glyph unicode="&#xfe;" horiz-adv-x="1073" d="M123 -295v1868h160v-588q30 103 107.5 159t174.5 56q71 0 132.5 -21t115 -69t91.5 -120.5t59.5 -181.5t21.5 -247q0 -130 -25 -233t-65 -168t-95 -107.5t-111.5 -60t-117.5 -17.5q-108 0 -184 50t-104 118v-438h-160zM283 586q0 -459 270 -459q63 0 109.5 21t83 69.5 t55 135.5t18.5 212q0 182 -30 289t-87 151t-151 44q-131 0 -199.5 -126t-68.5 -337z" />
<glyph unicode="&#xff;" horiz-adv-x="923" d="M23 1176h163l318 -967l235 967h154l-289 -1186q-46 -202 -120.5 -280.5t-198.5 -78.5q-131 0 -194.5 52t-63.5 163q0 30 10 82h156q-9 -35 -9 -80q0 -39 26.5 -63.5t68.5 -24.5q57 0 92.5 45t54.5 156zM225 1280v215h193v-215h-193zM578 1280v215h192v-215h-192z" />
<glyph unicode="&#x152;" horiz-adv-x="2011" d="M92 786q0 411 148.5 611t429.5 200q88 0 159.5 -18.5t119.5 -51t75.5 -60t52.5 -62.5v168h824v-141h-660v-553h604v-142h-604v-596h707v-141h-871v158q-80 -101 -168.5 -141.5t-238.5 -41.5q-299 -2 -438.5 191.5t-139.5 619.5zM264 786q0 -359 95.5 -515t310.5 -156 q223 0 316 159t93 512q0 672 -409 672q-406 0 -406 -672z" />
<glyph unicode="&#x153;" horiz-adv-x="1777" d="M88 594q0 160 35 281.5t97.5 193.5t143 107.5t177.5 35.5q246 0 362 -215q55 115 134.5 165t232.5 50q183 0 285.5 -116.5t117.5 -347.5q4 -62 4 -111t-2 -74h-684q0 -36 4 -98q12 -190 80.5 -269t216.5 -79q211 0 219 221l-2 47l158 -16q5 -27 2 -76q-11 -150 -112 -234 t-283 -84q-150 0 -237 49.5t-140 155.5q-117 -202 -356 -205q-97 -1 -177.5 35t-143 109t-97.5 194t-35 281zM248 594q0 -66 6.5 -126.5t26 -126t50.5 -113t85 -78.5t125 -31t125 31t85 78.5t50.5 113t26 126t6.5 126.5q0 55 -5 106t-16 107.5t-33 102t-53.5 83.5t-79 59 t-106.5 21t-106.5 -21t-79 -59t-53.5 -83.5t-33 -102t-16 -107.5t-5 -106zM991 702h518q0 62 -6 117q-36 254 -235 254q-130 0 -203.5 -97.5t-73.5 -273.5z" />
<glyph unicode="&#x178;" horiz-adv-x="1146" d="M25 1573h184l387 -750l360 750h166l-454 -914v-659h-168v659zM305 1622v182h193v-182h-193zM657 1622v182h193v-182h-193z" />
<glyph unicode="&#x2c6;" horiz-adv-x="1105" d="M297 1303l182 258h148l182 -258h-100l-156 120l-156 -120h-100z" />
<glyph unicode="&#x2dc;" horiz-adv-x="1105" d="M256 1403q0 77 36 116.5t118 39.5q36 0 69 -11t50 -21.5t44 -31.5l45 -35q42 -30 72 -30q46 0 62 36t4 84h78q18 -41 18 -106q0 -75 -40.5 -109.5t-127.5 -34.5q-73 0 -143 60l-43 35q-46 39 -82 39q-33 0 -50.5 -21.5t-17.5 -50.5t6 -57h-80q-18 35 -18 98z" />
<glyph unicode="&#x2000;" horiz-adv-x="948" />
<glyph unicode="&#x2001;" horiz-adv-x="1896" />
<glyph unicode="&#x2002;" horiz-adv-x="948" />
<glyph unicode="&#x2003;" horiz-adv-x="1896" />
<glyph unicode="&#x2004;" horiz-adv-x="632" />
<glyph unicode="&#x2005;" horiz-adv-x="474" />
<glyph unicode="&#x2006;" horiz-adv-x="316" />
<glyph unicode="&#x2007;" horiz-adv-x="316" />
<glyph unicode="&#x2008;" horiz-adv-x="237" />
<glyph unicode="&#x2009;" horiz-adv-x="379" />
<glyph unicode="&#x200a;" horiz-adv-x="105" />
<glyph unicode="&#x2010;" horiz-adv-x="624" d="M102 594v158h420v-158h-420z" />
<glyph unicode="&#x2011;" horiz-adv-x="624" d="M102 594v158h420v-158h-420z" />
<glyph unicode="&#x2012;" horiz-adv-x="624" d="M102 594v158h420v-158h-420z" />
<glyph unicode="&#x2013;" d="M0 602v141h1024v-141h-1024z" />
<glyph unicode="&#x2014;" horiz-adv-x="2048" d="M0 602v141h2048v-141h-2048z" />
<glyph unicode="&#x2018;" horiz-adv-x="440" d="M96 1022v254q0 83 23.5 135.5t75.5 89.5q49 41 159 55l19 -81q-77 -22 -113 -52q-29 -27 -38.5 -66.5t-0.5 -80.5h107v-254h-232z" />
<glyph unicode="&#x2019;" horiz-adv-x="440" d="M74 1120q78 22 112 51q28 27 38 67t1 81h-106v254h231v-254q0 -84 -23 -136t-75 -89q-50 -42 -160 -56z" />
<glyph unicode="&#x201a;" horiz-adv-x="440" d="M74 -199q76 21 112 52q29 27 38.5 66.5t0.5 80.5h-106v254h231v-254q0 -84 -23 -136t-75 -89q-50 -42 -160 -56z" />
<glyph unicode="&#x201c;" horiz-adv-x="802" d="M96 1022v254q0 83 23.5 135.5t75.5 89.5q49 41 159 55l19 -81q-77 -22 -113 -52q-29 -27 -38.5 -66.5t-0.5 -80.5h107v-254h-232zM457 1022v254q0 84 23 136t75 89q49 41 160 55l18 -81q-76 -21 -112 -52q-29 -27 -38.5 -66.5t-0.5 -80.5h106v-254h-231z" />
<glyph unicode="&#x201d;" horiz-adv-x="802" d="M74 1120q78 22 112 51q28 27 38 67t1 81h-106v254h231v-254q0 -84 -23 -136t-75 -89q-50 -42 -160 -56zM434 1120q79 22 113 51q28 27 38 67t1 81h-107v254h232v-254q0 -83 -23.5 -135.5t-75.5 -89.5q-50 -42 -159 -56z" />
<glyph unicode="&#x201e;" horiz-adv-x="802" d="M74 -199q76 21 112 52q29 27 38.5 66.5t0.5 80.5h-106v254h231v-254q0 -84 -23 -136t-75 -89q-50 -42 -160 -56zM434 -199q77 22 113 52q29 27 38.5 66.5t0.5 80.5h-107v254h232v-254q0 -83 -23.5 -135.5t-75.5 -89.5q-50 -42 -159 -56z" />
<glyph unicode="&#x2022;" d="M143 782q0 152 108 259.5t259 107.5q154 0 262.5 -107.5t108.5 -259.5q0 -149 -108.5 -255.5t-262.5 -106.5q-151 0 -259 106.5t-108 255.5z" />
<glyph unicode="&#x2026;" horiz-adv-x="1769" d="M174 0v258h244v-258h-244zM764 0v258h244v-258h-244zM1354 0v258h243v-258h-243z" />
<glyph unicode="&#x202f;" horiz-adv-x="379" />
<glyph unicode="&#x2039;" horiz-adv-x="770" d="M113 469v195l516 391v-201l-365 -289l365 -291v-200z" />
<glyph unicode="&#x203a;" horiz-adv-x="770" d="M137 74v200l371 291l-371 289v201l520 -391v-195z" />
<glyph unicode="&#x205f;" horiz-adv-x="474" />
<glyph unicode="&#x2122;" horiz-adv-x="1275" d="M127 1479v94h389v-94h-133v-379h-127v379h-129zM584 1100v473h168l98 -363l96 363h168v-473h-115v370l-98 -370h-113l-104 370v-370h-100z" />
<glyph unicode="&#xe000;" horiz-adv-x="1177" d="M0 0v1178h1178v-1178h-1178z" />
<glyph unicode="&#xfb01;" horiz-adv-x="999" d="M14 1036v140h174v94q0 166 77.5 246.5t271.5 80.5q162 0 255 -49.5t93 -142.5q0 -55 -13 -98l-165 8q12 15 12 69q0 95 -170 95q-108 0 -154.5 -40.5t-46.5 -127.5v-135h223v-140h-223v-1036h-160v1036h-174zM717 0v1176h160v-1176h-160z" />
<glyph unicode="&#xfb02;" horiz-adv-x="999" d="M14 1036v140h174v94q0 327 349 327q117 0 190 -47h150v-1550h-160v1405q-26 28 -70 51t-98 23q-108 0 -154.5 -40.5t-46.5 -127.5v-135h223v-140h-223v-1036h-160v1036h-174z" />
</font>
</defs>
</svg>
