<?xml version="1.0" encoding="utf-8"?>
<!-- Generator: Adobe Illustrator 16.0.0, SVG Export Plug-In . SVG Version: 6.00 Build 0)  -->
<!DOCTYPE svg PUBLIC "-//W3C//DTD SVG 1.1//EN" "http://www.w3.org/Graphics/SVG/1.1/DTD/svg11.dtd">
<svg version="1.1" id="Layer_1" xmlns="http://www.w3.org/2000/svg" xmlns:xlink="http://www.w3.org/1999/xlink" x="0px" y="0px"
	 width="389.553px" height="243.656px" viewBox="0 0 389.553 243.656" enable-background="new 0 0 389.553 243.656"
	 xml:space="preserve">
<g>
	<g>
		<g>
			<path fill="#FFFFFF" d="M236.964,110.8l-3.674,0.369V99.384h-3.914l1.002-3.457h10.131v3.457h-3.545V110.8z"/>
			<path fill="#FFFFFF" d="M247.159,96.144l3.674-0.369v5.783h4.697v-5.414l3.674-0.369V110.8l-3.674,0.369v-6.24h-4.697v5.871
				l-3.674,0.369V96.144z"/>
			<path fill="#FFFFFF" d="M266.747,95.927h8.459l0.674,3.109h-5.459v2.717h3.871v3.133h-3.871v2.891h5.783l-0.867,3.197h-8.59
				V95.927z"/>
			<path fill="#FFFFFF" d="M232.899,121.995h-3.283l1.043-4.373h9.762v4.373h-2.738v10.5l-4.783,0.48V121.995z"/>
			<path fill="#FFFFFF" d="M251.856,117.622h5.717l4.98,14.916l-5.176,0.414l-0.762-2.631h-3.979l-0.803,2.719l-5.045-0.48
				L251.856,117.622z M255.726,126.495l-1.086-4.479l-1.176,4.479H255.726z"/>
			<path fill="#FFFFFF" d="M268.835,117.622h5.326c3.695,0,5.762,1.98,5.762,5.24c0,3.025-2.219,5.264-5.762,5.264
				c-0.174,0-0.369,0-0.543-0.021v4.348l-4.783,0.436V117.622z M273.573,124.517c0.088,0,0.152,0,0.24,0
				c1.152,0,1.783-0.609,1.783-1.654c0-1.02-0.652-1.629-1.783-1.629c-0.088,0-0.152,0-0.24,0V124.517z"/>
			<path fill="#FFFFFF" d="M285.728,117.622h5.326c3.695,0,5.762,1.98,5.762,5.24c0,3.025-2.217,5.264-5.762,5.264
				c-0.174,0-0.369,0-0.545-0.021v4.348l-4.781,0.436V117.622z M290.466,124.517c0.088,0,0.152,0,0.24,0
				c1.15,0,1.783-0.609,1.783-1.654c0-1.02-0.652-1.629-1.783-1.629c-0.088,0-0.152,0-0.24,0V124.517z"/>
			<path fill="#FFFFFF" d="M303.706,117.622h8.371l0.891,4.023h-4.479v1.414h2.848v3.869h-2.848v1.521h4.762l-0.936,4.262h-8.609
				V117.622z"/>
			<path fill="#FFFFFF" d="M319.749,117.622h5.697c1.479,0,2.934,0.416,4.043,1.111c2.109,1.324,3.371,3.674,3.371,6.436
				s-1.262,5.109-3.371,6.436c-1.109,0.695-2.564,1.107-4.043,1.107h-5.697V117.622z M324.534,128.3c0.064,0,0.107,0,0.174,0
				c2.107,0,3.303-1.176,3.303-3.131c0-1.98-1.195-3.131-3.348-3.131c-0.043,0-0.086,0-0.129,0V128.3z"/>
			<path fill="#FFFFFF" d="M236.247,139.407c3.217,0,4.869,1.414,4.869,3.936c0,1.545-0.695,2.588-2.174,3.262
				c1.719,0.631,2.631,1.936,2.631,3.719c0,2.521-1.826,4.131-5.262,4.131h-5.305v-15.047H236.247z M234.638,145.452h1.021
				c1.088,0,1.719-0.631,1.719-1.566c0-0.934-0.697-1.543-1.719-1.543h-1.021V145.452z M234.638,151.409h1.457
				c1.064,0,1.717-0.588,1.717-1.588c0-0.934-0.717-1.586-1.717-1.586h-1.457V151.409z"/>
			<path fill="#FFFFFF" d="M248.007,139.407h4.719c3.521,0,5.414,1.74,5.414,4.5c0,1.74-0.762,2.979-2.348,3.893l3.936,5.74
				l-3.633,1.305l-4.412-7.088v6.588l-3.676,0.348V139.407z M251.683,146.714c0.107,0,0.217,0,0.326,0
				c1.629,0,2.543-0.783,2.543-2.088c0-1.326-0.914-2.109-2.609-2.109c-0.086,0-0.174,0-0.26,0V146.714z"/>
			<path fill="#FFFFFF" d="M264.985,139.407h8.459l0.674,3.109h-5.457v2.717h3.869v3.131h-3.869v2.895h5.783l-0.871,3.195h-8.588
				V139.407z"/>
			<path fill="#FFFFFF" d="M282.378,139.255l2.195,7.523l3.676-7.914l3.631,7.914l2.283-7.523l3.652,0.414l-5.457,15.633
				l-4.088-9.371l-4.369,9.371l-5.088-15.633L282.378,139.255z"/>
			<path fill="#FFFFFF" d="M318.382,154.149c-0.957,0.436-1.914,0.652-2.871,0.652c-2.066,0-3.74-0.674-5.131-2.043
				c-1.5-1.457-2.283-3.416-2.283-5.828c0-2.348,0.826-4.35,2.369-5.807c1.414-1.348,3.24-2.064,5.307-2.064
				c0.846,0,1.674,0.152,2.479,0.457l0.5,4.066c-0.957-0.719-1.85-1.088-2.762-1.088c-2.393,0-4.152,1.76-4.152,4.391
				s1.738,4.395,4.195,4.395c1.045,0,1.893-0.371,2.848-1.131L318.382,154.149z"/>
			<path fill="#FFFFFF" d="M330.546,140.386c0.951,0.898,1.453,2.135,1.453,3.602c0,1.48-0.502,2.689-1.453,3.602
				c-0.924,0.867-2.146,1.344-3.506,1.344s-2.568-0.477-3.492-1.344c-0.951-0.912-1.453-2.121-1.453-3.602s0.502-2.689,1.453-3.602
				c0.924-0.869,2.133-1.344,3.492-1.344S329.622,139.503,330.546,140.386z M328.983,143.987c0-1.332-0.762-2.16-1.943-2.16
				s-1.93,0.828-1.93,2.16c0,1.33,0.748,2.16,1.93,2.16S328.983,145.317,328.983,143.987z"/>
		</g>
		<g>
			<polygon fill="#FFFFFF" points="331.245,154.526 322.7,154.526 323.604,150.903 331.245,150.903 			"/>
		</g>
	</g>
	<g>
		<path fill="#FFFFFF" d="M121.636,57.077c-35.871,0-64.943,29.074-64.943,64.939c0,35.869,29.072,64.943,64.943,64.947
			c35.867,0,64.943-29.078,64.943-64.947C186.579,86.151,157.503,57.077,121.636,57.077z M95.036,117.978
			c-5.984,0-10.84-4.859-10.84-10.852c0-5.994,4.855-10.85,10.84-10.85c6,0,10.854,4.857,10.854,10.85
			S101.036,117.978,95.036,117.978z M132.698,155.56l-11.066-3.84l-11.059,3.84V96.261h22.125V155.56z M158.628,117.983
			l-21.723-21.723h21.723V117.983z"/>
	</g>
</g>
</svg>
