<?xml version="1.0" encoding="utf-8"?>
<!-- Generator: Adobe Illustrator 17.0.0, SVG Export Plug-In . SVG Version: 6.00 Build 0)  -->
<!DOCTYPE svg PUBLIC "-//W3C//DTD SVG 1.1//EN" "http://www.w3.org/Graphics/SVG/1.1/DTD/svg11.dtd">
<svg version="1.1" id="Layer_1" xmlns="http://www.w3.org/2000/svg" xmlns:xlink="http://www.w3.org/1999/xlink" x="0px" y="0px"
	 width="249px" height="249px" viewBox="70.277 -63.5 249 249" enable-background="new 70.277 -63.5 249 249" xml:space="preserve">
<g display="none">
	<g display="inline">
		<g>
			<path d="M236.964,110.8l-3.674,0.369V99.384h-3.914l1.002-3.457h10.131v3.457h-3.545V110.8z"/>
			<path d="M247.159,96.145l3.674-0.369v5.783h4.696v-5.414l3.675-0.369V110.8l-3.675,0.369v-6.239h-4.696v5.87l-3.674,0.369
				L247.159,96.145L247.159,96.145z"/>
			<path d="M266.747,95.927h8.459l0.674,3.109h-5.459v2.717h3.871v3.134h-3.871v2.891h5.783l-0.867,3.197h-8.59L266.747,95.927
				L266.747,95.927z"/>
			<path d="M232.899,121.995h-3.282l1.043-4.373h9.762v4.373h-2.738v10.5l-4.783,0.479L232.899,121.995L232.899,121.995z"/>
			<path d="M251.856,117.622h5.718l4.979,14.916l-5.177,0.414l-0.762-2.632h-3.979l-0.803,2.72l-5.045-0.479L251.856,117.622z
				 M255.726,126.495l-1.086-4.479l-1.176,4.479L255.726,126.495L255.726,126.495z"/>
			<path d="M268.835,117.622h5.326c3.694,0,5.762,1.979,5.762,5.239c0,3.025-2.219,5.265-5.762,5.265c-0.175,0-0.369,0-0.543-0.021
				v4.348l-4.783,0.436V117.622z M273.573,124.518c0.088,0,0.151,0,0.239,0c1.151,0,1.783-0.608,1.783-1.654
				c0-1.021-0.652-1.629-1.783-1.629c-0.088,0-0.151,0-0.239,0V124.518z"/>
			<path d="M285.728,117.622h5.326c3.695,0,5.762,1.979,5.762,5.239c0,3.025-2.217,5.265-5.762,5.265c-0.174,0-0.369,0-0.545-0.021
				v4.348l-4.781,0.436L285.728,117.622L285.728,117.622z M290.466,124.518c0.088,0,0.152,0,0.24,0c1.149,0,1.782-0.608,1.782-1.654
				c0-1.021-0.651-1.629-1.782-1.629c-0.088,0-0.152,0-0.24,0V124.518z"/>
			<path d="M303.706,117.622h8.371l0.891,4.022h-4.479v1.414h2.849v3.869h-2.849v1.521h4.763l-0.937,4.262h-8.608L303.706,117.622
				L303.706,117.622z"/>
			<path d="M236.247,139.407c3.217,0,4.869,1.413,4.869,3.936c0,1.546-0.695,2.589-2.175,3.263c1.72,0.631,2.632,1.937,2.632,3.72
				c0,2.521-1.826,4.131-5.263,4.131h-5.306V139.41L236.247,139.407L236.247,139.407z M234.638,145.452h1.021
				c1.088,0,1.719-0.632,1.719-1.565c0-0.935-0.697-1.544-1.719-1.544h-1.021V145.452z M234.638,151.409h1.457
				c1.064,0,1.717-0.589,1.717-1.589c0-0.935-0.717-1.586-1.717-1.586h-1.457V151.409z"/>
			<path d="M248.007,139.407h4.719c3.521,0,5.414,1.739,5.414,4.5c0,1.739-0.762,2.979-2.348,3.893l3.936,5.74l-3.633,1.306
				l-4.412-7.089v6.589l-3.676,0.348L248.007,139.407L248.007,139.407z M251.683,146.714c0.107,0,0.217,0,0.326,0
				c1.629,0,2.543-0.782,2.543-2.088c0-1.326-0.914-2.108-2.609-2.108c-0.086,0-0.174,0-0.26,0L251.683,146.714L251.683,146.714z"/>
			<path d="M264.985,139.407h8.459l0.675,3.108h-5.457v2.717h3.868v3.131h-3.868v2.896h5.782l-0.871,3.195h-8.588L264.985,139.407
				L264.985,139.407z"/>
			<path d="M282.378,139.255l2.195,7.522l3.676-7.913l3.631,7.913l2.283-7.522l3.651,0.414l-5.457,15.633l-4.088-9.37l-4.369,9.37
				l-5.088-15.633L282.378,139.255z"/>
			<path d="M318.382,154.148c-0.957,0.437-1.914,0.651-2.871,0.651c-2.065,0-3.739-0.674-5.131-2.043
				c-1.5-1.457-2.283-3.416-2.283-5.827c0-2.349,0.826-4.351,2.369-5.808c1.414-1.349,3.24-2.063,5.308-2.063
				c0.847,0,1.675,0.151,2.479,0.457l0.5,4.065c-0.957-0.72-1.851-1.088-2.762-1.088c-2.395,0-4.152,1.76-4.152,4.391
				c0,2.632,1.738,4.396,4.195,4.396c1.045,0,1.893-0.37,2.848-1.131L318.382,154.148z"/>
		</g>
	</g>
	<g display="inline">
		<path d="M121.636,57.077c-35.871,0-64.943,29.073-64.943,64.938c0,35.869,29.072,64.943,64.943,64.947
			c35.867,0,64.943-29.078,64.943-64.947C186.579,86.15,157.503,57.077,121.636,57.077z M95.036,117.979
			c-5.984,0-10.841-4.859-10.841-10.853c0-5.994,4.855-10.851,10.841-10.851c6,0,10.854,4.857,10.854,10.851
			S101.036,117.979,95.036,117.979z M132.698,155.561l-11.066-3.84l-11.059,3.84V96.262h22.125V155.561z M158.628,117.982
			L136.905,96.26h21.724L158.628,117.982L158.628,117.982z"/>
	</g>
</g>
<g>
	<g>
		<g>
			<g>
				<path d="M84.604,110.704h-7.536l2.396-10.035h22.409v10.035h-6.287v24.109l-10.981,1.099V110.704z"/>
				<path d="M127.877,100.67h13.127l11.43,34.244l-11.88,0.948l-1.747-6.039h-9.134l-1.847,6.239l-11.58-1.098L127.877,100.67z
					 M136.762,121.036l-2.496-10.283l-2.696,10.283H136.762z"/>
				<path d="M166.606,100.67h12.229c8.487,0,13.228,4.542,13.228,12.03c0,6.937-5.091,12.081-13.228,12.081
					c-0.399,0-0.848,0-1.246-0.051v9.985l-10.982,0.996V100.67z M177.488,116.492c0.199,0,0.349,0,0.55,0
					c2.644,0,4.091-1.398,4.091-3.793c0-2.347-1.496-3.745-4.091-3.745c-0.201,0-0.351,0-0.55,0V116.492z"/>
				<path d="M204.639,100.67h12.228c8.487,0,13.229,4.542,13.229,12.03c0,6.937-5.092,12.081-13.229,12.081
					c-0.399,0-0.847,0-1.247-0.051v9.985l-10.98,0.996V100.67z M215.52,116.492c0.201,0,0.348,0,0.549,0
					c2.645,0,4.092-1.398,4.092-3.793c0-2.347-1.496-3.745-4.092-3.745c-0.201,0-0.348,0-0.549,0V116.492z"/>
				<path d="M245.665,100.67h19.218l2.046,9.234h-10.283v3.245h6.539v8.885h-6.539v3.496h10.931l-2.146,9.782h-19.766V100.67z"/>
				<path d="M281.749,100.67h13.079c3.394,0,6.738,0.948,9.283,2.545c4.843,3.045,7.736,8.436,7.736,14.776
					c0,6.339-2.893,11.731-7.736,14.776c-2.545,1.599-5.889,2.545-9.283,2.545h-13.079V100.67z M292.732,125.18
					c0.149,0,0.25,0,0.4,0c4.841,0,7.586-2.696,7.586-7.19c0-4.542-2.745-7.189-7.686-7.189c-0.1,0-0.2,0-0.3,0V125.18z"/>
			</g>
			<g>
				<path d="M137.309,150.648l5.625-0.565v17.934h6.654l-1.464,5.324h-10.815V150.648z"/>
				<path d="M159.637,150.316h12.943l1.031,4.757h-8.351v4.16h5.922v4.791h-5.922v4.427h8.849l-1.33,4.891h-13.143V150.316z"/>
				<path d="M184.127,150.316h12.944l1.029,4.757h-8.351v4.16h5.922v4.791h-5.922v4.427h8.85l-1.331,4.891h-13.142V150.316z"/>
				<path d="M208.615,150.316h6.222c8.619,0,13.144,4.059,13.144,11.514c0,7.454-4.525,11.513-13.144,11.513h-6.222V150.316z
					 M215.369,168.184c4.394,0,6.887-2.395,6.887-6.422c0-4.127-2.461-6.589-6.821-6.589c-0.399,0-0.796,0.033-1.197,0.066v12.912
					C214.64,168.184,215.005,168.184,215.369,168.184z"/>
				<path d="M238.063,166.722c1.463,1.296,3.028,1.963,4.625,1.963c1.798,0,2.895-0.835,2.895-1.998
					c0-1.696-1.831-1.897-4.492-2.794c-3.826-1.266-5.624-3.094-5.624-6.524c0-4.292,3.194-7.32,8.252-7.32
					c2.795,0,5.158,0.832,7.32,2.596l-3.094,3.859c-1.23-1.131-2.461-1.663-3.894-1.663c-1.596,0-2.595,0.797-2.595,1.83
					c0,1.764,1.931,1.864,4.825,2.795c3.461,1.099,5.323,3.494,5.323,6.722c0,4.493-3.495,7.687-8.882,7.687
					c-3.096,0-5.69-0.998-7.953-3.027L238.063,166.722z"/>
			</g>
		</g>
		<g>
			<polygon points="268.33,-7.793 225.109,-51.018 268.33,-51.018 			"/>
			<path d="M165.532-29.399c0,12.413-10.058,22.476-22.471,22.476c-12.412,0-22.475-10.062-22.475-22.476
				c0-12.416,10.063-22.476,22.475-22.476C155.474-51.875,165.532-41.815,165.532-29.399z"/>
			<polygon points="173.394,-51.018 173.394,65.687 195.005,57.043 216.615,65.687 216.615,-51.018 			"/>
		</g>
	</g>
	<rect x="44.277" y="-89.5" fill="none" width="301" height="301"/>
</g>
</svg>
