<?xml version="1.0" encoding="utf-8"?>
<!-- Generator: Adobe Illustrator 16.0.0, SVG Export Plug-In . SVG Version: 6.00 Build 0)  -->
<!DOCTYPE svg PUBLIC "-//W3C//DTD SVG 1.1//EN" "http://www.w3.org/Graphics/SVG/1.1/DTD/svg11.dtd">
<svg version="1.1" id="Layer_1" xmlns="http://www.w3.org/2000/svg" xmlns:xlink="http://www.w3.org/1999/xlink" x="0px" y="0px"
	 width="389.553px" height="122px" viewBox="0 0 389.553 122" enable-background="new 0 0 389.553 122" xml:space="preserve">
<g display="none">
	<g display="inline">
		<g>
			<path d="M236.964,110.8l-3.674,0.369V99.384h-3.914l1.002-3.457h10.131v3.457h-3.545V110.8z"/>
			<path d="M247.159,96.145l3.674-0.369v5.783h4.696v-5.414l3.675-0.369V110.8l-3.675,0.369v-6.239h-4.696v5.87l-3.674,0.369V96.145
				L247.159,96.145z"/>
			<path d="M266.747,95.927h8.459l0.674,3.109h-5.459v2.717h3.871v3.134h-3.871v2.891h5.783l-0.867,3.197h-8.59V95.927
				L266.747,95.927z"/>
			<path d="M232.899,121.995h-3.282l1.043-4.373h9.762v4.373h-2.738v10.5l-4.783,0.479L232.899,121.995L232.899,121.995z"/>
			<path d="M251.856,117.622h5.718l4.979,14.916l-5.177,0.414l-0.762-2.632h-3.979l-0.803,2.72l-5.045-0.479L251.856,117.622z
				 M255.726,126.495l-1.086-4.479l-1.176,4.479H255.726L255.726,126.495z"/>
			<path d="M268.835,117.622h5.326c3.694,0,5.762,1.979,5.762,5.239c0,3.025-2.219,5.265-5.762,5.265c-0.175,0-0.369,0-0.543-0.021
				v4.348l-4.783,0.436V117.622z M273.573,124.518c0.088,0,0.151,0,0.239,0c1.151,0,1.783-0.608,1.783-1.654
				c0-1.021-0.652-1.629-1.783-1.629c-0.088,0-0.151,0-0.239,0V124.518z"/>
			<path d="M285.728,117.622h5.326c3.695,0,5.762,1.979,5.762,5.239c0,3.025-2.217,5.265-5.762,5.265c-0.174,0-0.369,0-0.545-0.021
				v4.348l-4.781,0.436V117.622L285.728,117.622z M290.466,124.518c0.088,0,0.152,0,0.24,0c1.149,0,1.782-0.608,1.782-1.654
				c0-1.021-0.651-1.629-1.782-1.629c-0.088,0-0.152,0-0.24,0V124.518z"/>
			<path d="M303.706,117.622h8.371l0.891,4.022h-4.479v1.414h2.849v3.869h-2.849v1.521h4.763l-0.937,4.262h-8.608V117.622
				L303.706,117.622z"/>
			<path d="M319.749,117.622h5.696c1.479,0,2.935,0.416,4.043,1.11c2.108,1.324,3.371,3.675,3.371,6.437
				c0,2.763-1.263,5.108-3.371,6.437c-1.108,0.694-2.563,1.106-4.043,1.106h-5.696V117.622z M324.534,128.3c0.062,0,0.105,0,0.174,0
				c2.106,0,3.303-1.176,3.303-3.131c0-1.979-1.194-3.131-3.348-3.131c-0.043,0-0.086,0-0.129,0V128.3L324.534,128.3z"/>
			<path d="M236.247,139.407c3.217,0,4.869,1.413,4.869,3.936c0,1.546-0.695,2.589-2.175,3.263c1.72,0.631,2.632,1.937,2.632,3.72
				c0,2.521-1.826,4.131-5.263,4.131h-5.306v-15.047L236.247,139.407L236.247,139.407z M234.638,145.452h1.021
				c1.088,0,1.719-0.632,1.719-1.565c0-0.935-0.697-1.544-1.719-1.544h-1.021V145.452z M234.638,151.409h1.457
				c1.064,0,1.717-0.589,1.717-1.589c0-0.935-0.717-1.586-1.717-1.586h-1.457V151.409z"/>
			<path d="M248.007,139.407h4.719c3.521,0,5.414,1.739,5.414,4.5c0,1.739-0.762,2.979-2.348,3.893l3.936,5.74l-3.633,1.306
				l-4.412-7.089v6.589l-3.676,0.348V139.407L248.007,139.407z M251.683,146.714c0.107,0,0.217,0,0.326,0
				c1.629,0,2.543-0.782,2.543-2.088c0-1.326-0.914-2.108-2.609-2.108c-0.086,0-0.174,0-0.26,0V146.714L251.683,146.714z"/>
			<path d="M264.985,139.407h8.459l0.675,3.108h-5.457v2.717h3.868v3.131h-3.868v2.896h5.782l-0.871,3.195h-8.588V139.407
				L264.985,139.407z"/>
			<path d="M282.378,139.255l2.195,7.522l3.676-7.913l3.631,7.913l2.283-7.522l3.651,0.414l-5.457,15.633l-4.088-9.37l-4.369,9.37
				l-5.088-15.633L282.378,139.255z"/>
			<path d="M318.382,154.148c-0.957,0.437-1.914,0.651-2.871,0.651c-2.065,0-3.739-0.674-5.131-2.043
				c-1.5-1.457-2.283-3.416-2.283-5.827c0-2.349,0.826-4.351,2.369-5.808c1.414-1.349,3.24-2.063,5.308-2.063
				c0.847,0,1.675,0.151,2.479,0.457l0.5,4.065c-0.957-0.72-1.851-1.088-2.762-1.088c-2.395,0-4.152,1.76-4.152,4.391
				c0,2.632,1.738,4.396,4.195,4.396c1.045,0,1.893-0.37,2.848-1.131L318.382,154.148z"/>
			<path d="M330.546,140.387c0.951,0.897,1.453,2.135,1.453,3.602c0,1.479-0.502,2.688-1.453,3.603
				c-0.924,0.867-2.146,1.345-3.506,1.345c-1.36,0-2.568-0.478-3.492-1.345c-0.951-0.911-1.453-2.12-1.453-3.603
				c0-1.48,0.502-2.688,1.453-3.602c0.924-0.869,2.133-1.345,3.492-1.345C328.399,139.042,329.622,139.503,330.546,140.387z
				 M328.983,143.986c0-1.332-0.763-2.159-1.942-2.159c-1.181,0-1.931,0.827-1.931,2.159c0,1.33,0.748,2.16,1.931,2.16
				C328.222,146.146,328.983,145.316,328.983,143.986z"/>
		</g>
		<g>
			<polygon points="331.245,154.525 322.7,154.525 323.604,150.902 331.245,150.902 			"/>
		</g>
	</g>
	<g display="inline">
		<path d="M121.636,57.077c-35.871,0-64.943,29.073-64.943,64.938c0,35.869,29.072,64.943,64.943,64.947
			c35.867,0,64.943-29.078,64.943-64.947C186.579,86.15,157.503,57.077,121.636,57.077z M95.036,117.979
			c-5.984,0-10.841-4.859-10.841-10.853c0-5.994,4.855-10.851,10.841-10.851c6,0,10.854,4.857,10.854,10.851
			S101.036,117.979,95.036,117.979z M132.698,155.561l-11.066-3.84l-11.059,3.84V96.262h22.125V155.561z M158.628,117.982
			L136.905,96.26h21.724V117.982L158.628,117.982z"/>
	</g>
</g>
<g>
	<g>
		<g>
			<g>
				<path d="M208.49,32.599l-6.846,0.688V11.324h-7.295l1.867-6.442h18.879v6.442h-6.605V32.599z"/>
				<path d="M227.489,5.286l6.848-0.688v10.777h8.753V5.286l6.846-0.688v28.001l-6.846,0.688v-11.63h-8.753v10.941l-6.848,0.688
					V5.286z"/>
				<path d="M263.991,4.882h15.765l1.256,5.795h-10.173v5.062h7.213v5.838h-7.213v5.388h10.776l-1.616,5.958h-16.008V4.882z"/>
				<path d="M200.914,53.462h-6.118l1.944-8.149h18.191v8.149h-5.103v19.567l-8.915,0.896V53.462z"/>
				<path d="M236.242,45.312h10.653l9.282,27.797l-9.646,0.771l-1.42-4.903h-7.414l-1.496,5.067l-9.401-0.896L236.242,45.312z
					 M243.452,61.848l-2.023-8.346l-2.191,8.346H243.452z"/>
				<path d="M267.883,45.312h9.926c6.886,0,10.737,3.69,10.737,9.766c0,5.638-4.136,9.81-10.737,9.81c-0.324,0-0.688,0-1.012-0.04
					v8.102l-8.914,0.812V45.312z M276.713,58.16c0.163,0,0.284,0,0.447,0c2.147,0,3.323-1.135,3.323-3.082
					c0-1.9-1.215-3.036-3.323-3.036c-0.163,0-0.284,0-0.447,0V58.16z"/>
				<path d="M299.363,45.312h9.927c6.887,0,10.737,3.69,10.737,9.766c0,5.638-4.132,9.81-10.737,9.81c-0.324,0-0.688,0-1.016-0.04
					v8.102l-8.911,0.812V45.312z M308.194,58.16c0.164,0,0.284,0,0.447,0c2.145,0,3.323-1.135,3.323-3.082
					c0-1.9-1.216-3.036-3.323-3.036c-0.163,0-0.283,0-0.447,0V58.16z"/>
				<path d="M332.867,45.312h15.6l1.66,7.498h-8.347v2.635h5.308v7.211h-5.308v2.836h8.875l-1.744,7.941h-16.044V45.312z"/>
				<path d="M362.765,45.312h10.617c2.755,0,5.467,0.775,7.534,2.071c3.931,2.467,6.282,6.846,6.282,11.992
					s-2.352,9.522-6.282,11.994c-2.067,1.296-4.779,2.063-7.534,2.063h-10.617V45.312z M371.682,65.211c0.12,0,0.199,0,0.323,0
					c3.928,0,6.155-2.19,6.155-5.835c0-3.69-2.228-5.834-6.238-5.834c-0.08,0-0.161,0-0.24,0V65.211z"/>
				<path d="M207.154,85.911c5.995,0,9.073,2.635,9.073,7.333c0,2.88-1.295,4.823-4.051,6.079c3.203,1.176,4.903,3.607,4.903,6.931
					c0,4.698-3.403,7.697-9.806,7.697h-9.886v-28.04H207.154z M204.155,97.176h1.903c2.027,0,3.203-1.176,3.203-2.92
					c0-1.739-1.3-2.875-3.203-2.875h-1.903V97.176z M204.155,108.277h2.716c1.982,0,3.199-1.097,3.199-2.959
					c0-1.741-1.337-2.956-3.199-2.956h-2.716V108.277z"/>
				<path d="M229.069,85.911h8.794c6.562,0,10.089,3.242,10.089,8.386c0,3.243-1.419,5.551-4.375,7.253l7.335,10.698l-6.771,2.432
					l-8.223-13.209v12.276l-6.85,0.648V85.911z M235.918,99.526c0.201,0,0.404,0,0.608,0c3.036,0,4.738-1.459,4.738-3.89
					c0-2.472-1.702-3.932-4.862-3.932c-0.16,0-0.324,0-0.484,0V99.526z"/>
				<path d="M260.709,85.911h15.764l1.256,5.794h-10.17v5.063h7.211v5.834h-7.211v5.395h10.777l-1.623,5.954h-16.004V85.911z"/>
				<path d="M293.121,85.627l4.091,14.02l6.851-14.747l6.767,14.747l4.254-14.02l6.807,0.771l-10.169,29.133l-7.619-17.464
					l-8.142,17.464l-9.481-29.133L293.121,85.627z"/>
				<path d="M360.217,113.384c-1.784,0.811-3.567,1.215-5.351,1.215c-3.852,0-6.971-1.255-9.562-3.807
					c-2.796-2.716-4.255-6.366-4.255-10.861c0-4.375,1.539-8.105,4.414-10.82c2.636-2.513,6.039-3.848,9.89-3.848
					c1.575,0,3.119,0.284,4.619,0.852l0.931,7.578c-1.783-1.34-3.446-2.027-5.146-2.027c-4.459,0-7.738,3.279-7.738,8.183
					c0,4.902,3.239,8.189,7.818,8.189c1.947,0,3.526-0.692,5.306-2.108L360.217,113.384z"/>
				<path d="M382.885,87.733c1.772,1.675,2.707,3.979,2.707,6.713c0,2.759-0.935,5.012-2.707,6.712
					c-1.722,1.615-4.001,2.504-6.533,2.504c-2.533,0-4.787-0.889-6.508-2.504c-1.773-1.7-2.709-3.953-2.709-6.712
					c0-2.76,0.936-5.013,2.709-6.713c1.721-1.619,3.975-2.504,6.508-2.504C378.884,85.229,381.163,86.089,382.885,87.733z
					 M379.973,94.446c0-2.482-1.419-4.025-3.621-4.025s-3.597,1.543-3.597,4.025c0,2.478,1.395,4.024,3.597,4.024
					S379.973,96.924,379.973,94.446z"/>
			</g>
			<g>
				<polygon points="384.188,114.086 368.264,114.086 369.949,107.334 384.188,107.334 				"/>
			</g>
		</g>
	</g>
	<g>
		<polygon points="144.985,46.657 102.807,4.479 144.985,4.479 		"/>
		<circle cx="24.285" cy="25.574" r="21.931"/>
		<polygon points="53.889,4.479 53.889,118.357 74.978,109.922 96.066,118.357 96.066,4.479 		"/>
	</g>
</g>
</svg>
