<?xml version="1.0" encoding="utf-8"?>
<!-- Generator: Adobe Illustrator 16.0.0, SVG Export Plug-In . SVG Version: 6.00 Build 0)  -->
<!DOCTYPE svg PUBLIC "-//W3C//DTD SVG 1.1//EN" "http://www.w3.org/Graphics/SVG/1.1/DTD/svg11.dtd">
<svg version="1.1" id="Layer_1" xmlns="http://www.w3.org/2000/svg" xmlns:xlink="http://www.w3.org/1999/xlink" x="0px" y="0px"
	 width="389.553px" height="243.656px" viewBox="0 0 389.553 243.656" enable-background="new 0 0 389.553 243.656"
	 xml:space="preserve">
<g>
	<g>
		<g>
			<path d="M236.964,110.8l-3.674,0.369V99.384h-3.914l1.002-3.457h10.131v3.457h-3.545V110.8z"/>
			<path d="M247.159,96.144l3.674-0.369v5.783h4.696v-5.414l3.675-0.369V110.8l-3.675,0.369v-6.24h-4.696v5.871l-3.674,0.369V96.144
				L247.159,96.144z"/>
			<path d="M266.747,95.927h8.459l0.674,3.109h-5.459v2.717h3.871v3.133h-3.871v2.891h5.783l-0.867,3.197h-8.59V95.927
				L266.747,95.927z"/>
			<path d="M232.899,121.995h-3.282l1.043-4.373h9.762v4.373h-2.738v10.5l-4.783,0.479L232.899,121.995L232.899,121.995z"/>
			<path d="M251.856,117.622h5.718l4.979,14.916l-5.176,0.414l-0.762-2.632h-3.979l-0.803,2.72l-5.045-0.479L251.856,117.622z
				 M255.726,126.495l-1.086-4.479l-1.176,4.479H255.726z"/>
			<path d="M268.835,117.622h5.326c3.694,0,5.762,1.98,5.762,5.239c0,3.025-2.219,5.265-5.762,5.265c-0.175,0-0.369,0-0.543-0.021
				v4.348l-4.783,0.436V117.622z M273.573,124.518c0.088,0,0.151,0,0.239,0c1.152,0,1.783-0.609,1.783-1.654
				c0-1.021-0.652-1.629-1.783-1.629c-0.088,0-0.151,0-0.239,0V124.518z"/>
			<path d="M285.728,117.622h5.326c3.695,0,5.762,1.98,5.762,5.239c0,3.025-2.217,5.265-5.762,5.265c-0.174,0-0.369,0-0.545-0.021
				v4.348l-4.781,0.436V117.622L285.728,117.622z M290.466,124.518c0.088,0,0.152,0,0.24,0c1.149,0,1.782-0.609,1.782-1.654
				c0-1.021-0.651-1.629-1.782-1.629c-0.088,0-0.152,0-0.24,0V124.518z"/>
			<path d="M303.706,117.622h8.371l0.891,4.023h-4.479v1.414h2.849v3.869h-2.849v1.521h4.763l-0.937,4.262h-8.608V117.622
				L303.706,117.622z"/>
			<path d="M319.749,117.622h5.696c1.479,0,2.935,0.416,4.043,1.111c2.109,1.324,3.371,3.674,3.371,6.436
				c0,2.763-1.262,5.108-3.371,6.437c-1.108,0.694-2.563,1.106-4.043,1.106h-5.696V117.622z M324.534,128.3c0.063,0,0.106,0,0.174,0
				c2.106,0,3.303-1.176,3.303-3.131c0-1.979-1.195-3.131-3.348-3.131c-0.043,0-0.086,0-0.129,0V128.3L324.534,128.3z"/>
			<path d="M236.247,139.407c3.217,0,4.869,1.413,4.869,3.936c0,1.546-0.695,2.589-2.175,3.263c1.72,0.631,2.632,1.936,2.632,3.719
				c0,2.521-1.826,4.131-5.263,4.131h-5.305v-15.047L236.247,139.407L236.247,139.407z M234.638,145.452h1.021
				c1.088,0,1.719-0.632,1.719-1.566c0-0.934-0.697-1.543-1.719-1.543h-1.021V145.452z M234.638,151.409h1.457
				c1.064,0,1.717-0.589,1.717-1.589c0-0.934-0.717-1.586-1.717-1.586h-1.457V151.409z"/>
			<path d="M248.007,139.407h4.719c3.521,0,5.414,1.739,5.414,4.5c0,1.739-0.762,2.979-2.348,3.893l3.936,5.74l-3.633,1.306
				l-4.412-7.089v6.589l-3.676,0.348V139.407L248.007,139.407z M251.683,146.714c0.107,0,0.217,0,0.326,0
				c1.629,0,2.543-0.782,2.543-2.088c0-1.326-0.914-2.108-2.609-2.108c-0.086,0-0.174,0-0.26,0V146.714L251.683,146.714z"/>
			<path d="M264.985,139.407h8.459l0.675,3.108h-5.457v2.717h3.868v3.131h-3.868v2.896h5.782l-0.871,3.195h-8.588V139.407
				L264.985,139.407z"/>
			<path d="M282.378,139.255l2.195,7.522l3.676-7.913l3.631,7.913l2.283-7.522l3.651,0.414l-5.457,15.633l-4.088-9.37l-4.369,9.37
				l-5.088-15.633L282.378,139.255z"/>
			<path d="M318.382,154.148c-0.957,0.437-1.914,0.652-2.871,0.652c-2.066,0-3.74-0.674-5.131-2.043
				c-1.5-1.457-2.283-3.416-2.283-5.828c0-2.348,0.826-4.35,2.369-5.807c1.414-1.348,3.24-2.064,5.307-2.064
				c0.847,0,1.674,0.152,2.479,0.457l0.5,4.066c-0.957-0.719-1.851-1.088-2.762-1.088c-2.394,0-4.152,1.76-4.152,4.391
				s1.738,4.395,4.195,4.395c1.045,0,1.893-0.37,2.848-1.131L318.382,154.148z"/>
			<path d="M330.546,140.386c0.951,0.898,1.453,2.136,1.453,3.603c0,1.479-0.502,2.688-1.453,3.602
				c-0.924,0.867-2.146,1.344-3.506,1.344c-1.36,0-2.568-0.477-3.492-1.344c-0.951-0.912-1.453-2.121-1.453-3.602
				c0-1.481,0.502-2.689,1.453-3.603c0.924-0.868,2.133-1.344,3.492-1.344C328.399,139.042,329.622,139.503,330.546,140.386z
				 M328.983,143.986c0-1.332-0.762-2.159-1.942-2.159c-1.182,0-1.931,0.827-1.931,2.159c0,1.33,0.748,2.16,1.931,2.16
				C328.222,146.146,328.983,145.316,328.983,143.986z"/>
		</g>
		<g>
			<polygon points="331.245,154.525 322.7,154.525 323.604,150.902 331.245,150.902 			"/>
		</g>
	</g>
	<g>
		<path d="M121.636,57.077c-35.871,0-64.943,29.074-64.943,64.939c0,35.869,29.072,64.943,64.943,64.947
			c35.867,0,64.943-29.078,64.943-64.947C186.579,86.151,157.503,57.077,121.636,57.077z M95.036,117.978
			c-5.984,0-10.841-4.859-10.841-10.852c0-5.994,4.855-10.85,10.841-10.85c6,0,10.854,4.857,10.854,10.85
			S101.036,117.978,95.036,117.978z M132.698,155.561l-11.066-3.84l-11.059,3.84v-59.3h22.125V155.561z M158.628,117.983
			L136.905,96.26h21.724V117.983L158.628,117.983z"/>
	</g>
</g>
</svg>
